<svg width="48" height="48" viewBox="0 0 48 48" fill="none" xmlns="http://www.w3.org/2000/svg">
<path d="M27.8594 11.0459C27.9882 11.3692 28.2253 11.6377 28.5303 11.8053C28.8353 11.973 29.1891 12.0294 29.531 11.9648C29.873 11.9003 30.1819 11.7189 30.4048 11.4516C30.6277 11.1843 30.7508 10.8479 30.7529 10.4999V9.98389C30.3428 10.1136 29.9402 10.2659 29.5469 10.4399C29.0018 10.6875 28.4374 10.8901 27.8594 11.0459Z" fill="black"/>
<path d="M42 5.25C41.9982 4.65381 41.7606 4.08255 41.339 3.66098C40.9175 3.23941 40.3462 3.00178 39.75 3H18.75C18.1538 3.00178 17.5825 3.23941 17.161 3.66098C16.7394 4.08255 16.5018 4.65381 16.5 5.25V24.66C18.6912 25.4338 20.5888 26.8675 21.9319 28.7639C23.275 30.6602 23.9974 32.9262 24 35.25C24.0017 36.0057 23.9263 36.7596 23.775 37.5H39.75C40.3462 37.4982 40.9175 37.2606 41.339 36.839C41.7606 36.4175 41.9982 35.8462 42 35.25V5.25ZM24 15.75C24.0024 14.9319 24.2725 14.1371 24.7691 13.4871C25.2658 12.837 25.9616 12.3674 26.7502 12.15C26.4243 11.6614 26.2503 11.0873 26.25 10.5V9C26.25 8.20435 26.5661 7.44129 27.1287 6.87868C27.6913 6.31607 28.4544 6 29.25 6C30.0456 6 30.8087 6.31607 31.3713 6.87868C31.9339 7.44129 32.25 8.20435 32.25 9V10.5C32.2497 11.0873 32.0757 11.6614 31.7498 12.15C32.5384 12.3674 33.2342 12.837 33.7309 13.4871C34.2275 14.1371 34.4976 14.9319 34.5 15.75V16.5C34.5 16.6989 34.421 16.8897 34.2803 17.0303C34.1397 17.171 33.9489 17.25 33.75 17.25H24.75C24.5511 17.25 24.3603 17.171 24.2197 17.0303C24.079 16.8897 24 16.6989 24 16.5V15.75ZM19.5 20.25H21V21.75H19.5V20.25ZM39 33.75H25.5V32.25H39V33.75ZM25.5 30.75V29.25H36V30.75H25.5ZM39 30.75H37.5V29.25H39V30.75ZM39 27.75H22.5V26.25H39V27.75ZM39 24.75H19.5V23.25H39V24.75ZM39 21.75H22.5V20.25H39V21.75Z" fill="black"/>
<path d="M30.75 13.5H27.75C27.1533 13.5 26.581 13.7371 26.159 14.159C25.7371 14.581 25.5 15.1533 25.5 15.75H33C33 15.1533 32.7629 14.581 32.341 14.159C31.919 13.7371 31.3467 13.5 30.75 13.5Z" fill="black"/>
<path d="M12.75 25.5C10.8216 25.5 8.93657 26.0718 7.33319 27.1432C5.72982 28.2145 4.48013 29.7373 3.74218 31.5188C3.00422 33.3004 2.81114 35.2608 3.18735 37.1521C3.56355 39.0434 4.49215 40.7807 5.85571 42.1443C7.21928 43.5079 8.95656 44.4365 10.8479 44.8127C12.7392 45.1889 14.6996 44.9958 16.4812 44.2578C18.2627 43.5199 19.7855 42.2702 20.8568 40.6668C21.9282 39.0634 22.5 37.1784 22.5 35.25C22.4976 32.6649 21.4696 30.1863 19.6417 28.3583C17.8137 26.5304 15.3351 25.5024 12.75 25.5ZM12.75 43.5C11.1183 43.5 9.52326 43.0161 8.16655 42.1096C6.80984 41.2031 5.75242 39.9146 5.128 38.4071C4.50358 36.8996 4.3402 35.2408 4.65853 33.6405C4.97685 32.0402 5.76259 30.5702 6.91637 29.4164C8.07016 28.2626 9.54017 27.4768 11.1405 27.1585C12.7409 26.8402 14.3997 27.0036 15.9071 27.628C17.4146 28.2524 18.7031 29.3098 19.6096 30.6665C20.5161 32.0233 21 33.6183 21 35.25C20.9974 37.4372 20.1274 39.5342 18.5808 41.0808C17.0342 42.6274 14.9372 43.4974 12.75 43.5Z" fill="black"/>
<path d="M30.6435 8.45423C30.5147 8.13092 30.2775 7.86244 29.9726 7.6948C29.6676 7.52715 29.3138 7.47076 28.9718 7.53529C28.6299 7.59982 28.321 7.78126 28.098 8.04851C27.8751 8.31577 27.7521 8.65222 27.75 9.00023V9.51623C28.1601 9.38647 28.5627 9.23424 28.956 9.06023C29.5011 8.81265 30.0654 8.60997 30.6435 8.45423Z" fill="black"/>
<path d="M18.0026 34.5002H19.4584C19.3169 33.2345 18.8185 32.0351 18.0214 31.0419L16.9954 32.0679L15.9349 31.0074L16.9609 29.9814C15.9677 29.1843 14.7683 28.6859 13.5026 28.5444V30.0002H12.0026V28.5444C10.737 28.6859 9.53759 29.1843 8.54437 29.9814L9.57037 31.0074L8.50988 32.0679L7.48388 31.0419C6.68672 32.0351 6.18835 33.2345 6.04688 34.5002H7.50262V36.0002H6.04688C6.18835 37.2659 6.68672 38.4652 7.48388 39.4584L8.50988 38.4324L9.57037 39.4929L8.54437 40.5189C9.53759 41.3161 10.737 41.8145 12.0026 41.9559V40.5002H13.5026V41.9559C14.7683 41.8145 15.9677 41.3161 16.9609 40.5189L15.9349 39.4929L16.9954 38.4324L18.0214 39.4584C18.8185 38.4652 19.3169 37.2659 19.4584 36.0002H18.0026V34.5002ZM13.5026 35.2502C13.5026 35.4491 13.4235 35.6398 13.2829 35.7804L11.7829 37.2804L10.7224 36.2199L12.0026 34.9397V31.5002H13.5026V35.2502Z" fill="black"/>
</svg>
