<svg width="54" height="56" viewBox="0 0 54 56" fill="none" xmlns="http://www.w3.org/2000/svg">
<path d="M5.72088 6.11436H17.6531L21.4986 15.8185L15.3198 19.9759C14.956 20.2209 14.6577 20.5528 14.4514 20.942C14.2451 21.3313 14.1372 21.766 14.1372 22.2074C14.1452 22.4596 14.1372 22.2101 14.1372 22.2101V22.2665C14.1388 22.3864 14.1441 22.5063 14.1532 22.6259C14.1691 22.8458 14.1957 23.1435 14.2462 23.511C14.3498 24.2352 14.5491 25.2329 14.9371 26.4077C15.7185 28.7681 17.2492 31.8231 20.2309 34.8325C23.2127 37.8419 26.2396 39.3868 28.5755 40.1754C29.7422 40.567 30.7281 40.7655 31.451 40.8727C31.859 40.9302 32.2697 40.9661 32.6814 40.98L32.7159 40.9827H32.7372C32.7372 40.9827 33.0348 40.9666 32.7399 40.9827C33.2333 40.9824 33.7168 40.8436 34.1365 40.5816C34.5561 40.3196 34.8951 39.9449 35.1157 39.4995L36.8962 35.9053L48.685 37.8902V49.4772C43.0749 50.2952 27.9218 51.1026 16.0161 39.0864C4.11042 27.0702 4.90768 11.7738 5.72088 6.11436ZM19.6463 23.511L24.4484 20.2816C25.4629 19.5987 26.2138 18.5844 26.5753 17.4089C26.9367 16.2335 26.8867 14.9683 26.4336 13.8256L22.5881 4.1215C22.1935 3.12616 21.5125 2.27298 20.6328 1.67203C19.7532 1.07108 18.7153 0.749928 17.6531 0.75H5.58268C3.167 0.75 0.894824 2.44246 0.498854 5.08709C-0.404702 11.1005 -1.62982 28.8619 12.2584 42.879C26.1466 56.8961 43.7446 55.6569 49.7028 54.7477C52.3231 54.3453 54 52.0548 54 49.6167V37.8902C54.0002 36.6203 53.554 35.3916 52.7408 34.4226C51.9277 33.4536 50.8003 32.8071 49.5593 32.5982L37.7705 30.6161C36.6493 30.4272 35.4976 30.6061 34.4846 31.1265C33.4715 31.6469 32.6504 32.4814 32.1419 33.5075L31.2224 35.3662C30.8973 35.2854 30.5754 35.1915 30.2577 35.0846C28.6101 34.5321 26.322 33.3948 23.9887 31.0399C21.6554 28.6849 20.5286 26.3756 19.9811 24.7099C19.8504 24.3162 19.7395 23.916 19.6489 23.511H19.6463Z" fill="white" fill-opacity="0.8"/>
</svg>
