<svg width="46" height="46" viewBox="0 0 46 46" fill="none" xmlns="http://www.w3.org/2000/svg">
<path d="M16.2904 28.7497V18.208H14.9947C13.7199 18.2079 12.4811 18.6314 11.4733 19.4121C10.4654 20.1927 9.74549 21.2862 9.42678 22.5205L6.70703 33.0622V33.5413H21.082V36.332C21.082 38.7087 21.082 40.2497 22.1439 42.6666C22.1439 42.6666 23.3322 45.0413 24.9154 45.0413M17.2487 45.0413H6.70703C5.18204 45.0413 3.7195 44.4355 2.64117 43.3572C1.56283 42.2789 0.957031 40.8163 0.957031 39.2913V6.70801C0.957031 5.18301 1.56283 3.72048 2.64117 2.64214C3.7195 1.56381 5.18204 0.958008 6.70703 0.958008H39.2904C40.8154 0.958008 42.2779 1.56381 43.3562 2.64214C44.4346 3.72048 45.0404 5.18301 45.0404 6.70801V39.2913C45.0404 40.8163 44.4346 42.2789 43.3562 43.3572C42.2779 44.4355 40.8154 45.0413 39.2904 45.0413H31.6237V27.7913M22.9987 27.7913H40.2487M16.0738 14.3747C16.0738 14.3747 13.7719 12.9372 13.7719 11.1413C13.79 10.4861 14.0629 9.86383 14.5327 9.40682C15.0025 8.94981 15.6321 8.69412 16.2875 8.69412C16.9429 8.69412 17.5725 8.94981 18.0423 9.40682C18.5121 9.86383 18.785 10.4861 18.8031 11.1413C18.8012 12.9372 16.5069 14.3747 16.5069 14.3747H16.0738Z" stroke="white" stroke-opacity="0.8" stroke-width="4.5"/>
</svg>
