<svg width="32" height="32" viewBox="0 0 32 32" fill="none" xmlns="http://www.w3.org/2000/svg">
<g clip-path="url(#clip0_11668_49949)">
<path d="M30.9813 27.769V26.1145C30.9773 25.7729 30.7014 25.497 30.3599 25.4931H29.8108V20.4355V17.2203H30.3599C30.7031 17.2203 30.9813 16.9422 30.9813 16.599V14.4315C31.7307 14.1574 32.1162 13.3276 31.8421 12.578C31.75 12.3261 31.5895 12.1047 31.3787 11.9388L16.9284 0.421982C16.4005 -0.000686638 15.65 -0.000686638 15.1221 0.421982L9.60934 4.80039C9.56687 4.8132 9.52914 4.83833 9.50096 4.87267L0.621336 11.9316C0.142244 12.3171 -0.0403703 12.9636 0.166155 13.5428C0.306977 13.9502 0.622217 14.2734 1.02592 14.4242V16.5918C1.02592 16.9349 1.30411 17.2131 1.64726 17.2131H2.19639V25.5003H1.64732C1.3058 25.5042 1.02985 25.7801 1.02599 26.1216V27.769C0.417724 27.9533 0.00128697 28.5134 0 29.149V30.4495C0 31.2476 0.64694 31.8945 1.445 31.8945H30.5549C31.353 31.8945 31.9999 31.2476 31.9999 30.4495V29.149C31.9997 28.5154 31.5866 27.9559 30.9813 27.769ZM24.2402 14.5543H29.7313V15.9993H24.2402V14.5543ZM28.5753 20.5006V25.5582H25.3963V17.2203H28.5464V20.4644L28.5753 20.5006ZM24.2402 26.7792H29.7313V27.7329H24.2402V26.7792ZM18.8214 17.2203H19.3705C19.7097 17.2243 19.9879 16.9527 19.9919 16.6135C19.9919 16.6086 19.9919 16.6038 19.9919 16.5989V14.5542H22.9975V16.635C22.9975 16.9782 23.2757 17.2564 23.6188 17.2564H24.168V25.5002H23.6188C23.2773 25.5042 23.0014 25.7801 22.9975 26.1216V27.6968H19.9919V26.1145C19.9919 25.7713 19.7137 25.4931 19.3705 25.4931H18.8214V17.2203ZM15.7579 7.87829C14.8323 7.77696 14.1403 6.981 14.1684 6.05031C14.1898 5.67066 14.3645 5.31599 14.6525 5.06768C14.8632 4.88649 15.1092 4.75115 15.375 4.67027V4.17906C15.3747 3.83591 15.6527 3.55745 15.9958 3.55711C16.339 3.55677 16.6174 3.83476 16.6178 4.17791V4.17899V4.69195C17.0444 4.83345 17.4276 5.08224 17.7305 5.41448C17.9482 5.67967 17.9162 6.06975 17.6582 6.29592C17.3954 6.51274 17.0076 6.4807 16.7839 6.22365C16.4819 5.7873 15.8833 5.67838 15.4469 5.98041C15.4446 5.98197 15.4424 5.98359 15.4401 5.98522C15.414 6.01556 15.3987 6.0537 15.3967 6.0936C15.3967 6.22365 15.3967 6.491 15.9819 6.63548C16.5672 6.77996 17.9616 7.25681 17.9761 8.40561C18.0184 9.23679 17.4368 9.97002 16.6178 10.118V10.5731C16.6174 10.9163 16.339 11.1943 15.9958 11.1939C15.6531 11.1936 15.3753 10.9159 15.375 10.5731V10.1469C14.8598 9.99698 14.4129 9.6726 14.1106 9.22927C13.9111 8.94593 13.979 8.55456 14.2624 8.35501C14.5457 8.15546 14.9371 8.2234 15.1366 8.50674C15.2955 8.7583 15.5627 8.92134 15.8591 8.94749C16.1124 8.98705 16.3712 8.92751 16.5817 8.78133C16.6629 8.68935 16.709 8.57163 16.7117 8.44896C16.7261 8.17456 16.112 7.93613 15.7579 7.87829ZM13.258 14.5543H18.7491V15.9993H13.258V14.5543ZM17.5931 17.2565V25.5004H14.4285V17.2204L17.5931 17.2565ZM13.258 26.7792H18.7491V27.7329H13.258V26.7792ZM7.83921 17.2203H8.38834C8.73149 17.2203 9.00968 16.9422 9.00968 16.599V14.5543H12.0153V16.6351C12.0113 16.9743 12.283 17.2525 12.6221 17.2564C12.627 17.2565 12.6318 17.2565 12.6367 17.2564H13.1858V25.5003H12.6367C12.2936 25.5003 12.0154 25.7785 12.0154 26.1216V27.6968H9.00975V26.1145C9.00582 25.7729 8.72993 25.497 8.38841 25.4931H7.83928L7.83921 17.2203ZM2.27591 14.5543H7.76701V15.9993H2.27591V14.5543ZM6.61097 17.2565V25.5004H3.44637V17.2204L6.61097 17.2565ZM2.27591 26.743H7.76701V27.6968H2.27591V26.743Z" fill="black"/>
</g>
<defs>
<clipPath id="clip0_11668_49949">
<rect width="32" height="32" fill="white"/>
</clipPath>
</defs>
</svg>
