<svg width="32" height="32" viewBox="0 0 32 32" fill="none" xmlns="http://www.w3.org/2000/svg">
<path d="M24.1369 18.9998C17.1086 15.9113 9.01249 16.1844 2.17303 19.8189C1.45119 20.2025 1 20.9532 1 21.7706V26.6664C1 27.955 2.04467 28.9997 3.33333 28.9997H13.6667V26.3332C13.6667 25.9349 13.3899 25.5677 13.6667 25.3234C13.3899 25.0792 13.6667 24.7314 13.6667 24.3332V22.6665C13.6667 20.6414 15.3083 18.9998 17.3333 18.9998H24.1369Z" fill="black"/>
<path fill-rule="evenodd" clip-rule="evenodd" d="M14 1C10.134 1 7 4.13401 7 8C7 11.866 10.134 15 14 15C17.866 15 21 11.866 21 8C21 4.13401 17.866 1 14 1Z" fill="black"/>
<path fill-rule="evenodd" clip-rule="evenodd" d="M15 25.3335C15 24.7812 15.4477 24.3335 16 24.3335H30.6667C31.2189 24.3335 31.6667 24.7812 31.6667 25.3335C31.6667 25.8858 31.2189 26.3335 30.6667 26.3335H16C15.4477 26.3335 15 25.8858 15 25.3335Z" fill="black"/>
<path fill-rule="evenodd" clip-rule="evenodd" d="M15 22.6668C15 21.3782 16.0447 20.3335 17.3333 20.3335H29.3333C30.622 20.3335 31.6667 21.3782 31.6667 22.6668V29.3335C31.6667 30.6222 30.622 31.6668 29.3333 31.6668H17.3333C16.0447 31.6668 15 30.6222 15 29.3335V22.6668ZM17.3333 22.3335C17.1492 22.3335 17 22.4827 17 22.6668V29.3335C17 29.5176 17.1492 29.6668 17.3333 29.6668H29.3333C29.5175 29.6668 29.6667 29.5176 29.6667 29.3335V22.6668C29.6667 22.4827 29.5175 22.3335 29.3333 22.3335H17.3333Z" fill="black"/>
</svg>
