<svg width="32" height="32" viewBox="0 0 32 32" fill="none" xmlns="http://www.w3.org/2000/svg">
<g clip-path="url(#clip0_11668_49939)">
<path d="M31.0815 12.0127C30.9852 12.0359 30.9019 12.0962 30.8499 12.1805C30.7979 12.2648 30.7814 12.3663 30.804 12.4627C31.0773 13.6229 31.2157 14.8108 31.2165 16.0027C31.2116 20.0358 29.6073 23.9024 26.7555 26.7542C23.9036 29.6061 20.0371 31.2104 16.004 31.2152C12.6915 31.2268 9.46784 30.1441 6.83397 28.1352C7.18761 27.6079 7.32891 26.9664 7.22955 26.3394C7.13019 25.7123 6.7975 25.1459 6.29817 24.7537C5.79884 24.3616 5.16976 24.1726 4.53699 24.2247C3.90422 24.2769 3.31452 24.5662 2.88606 25.0347C2.45761 25.5033 2.22206 26.1165 2.22663 26.7513C2.23119 27.3862 2.47553 27.996 2.91067 28.4583C3.34581 28.9207 3.93961 29.2015 4.57306 29.2445C5.20652 29.2875 5.83282 29.0895 6.32647 28.6902C9.09969 30.8252 12.5042 31.9773 16.004 31.9652C18.415 31.9626 20.7942 31.4145 22.9634 30.3618C25.1325 29.3092 27.0353 27.7793 28.5293 25.8869C30.0232 23.9944 31.0696 21.7885 31.5899 19.4342C32.1103 17.08 32.0911 14.6385 31.534 12.2927C31.5228 12.2445 31.5022 12.199 31.4734 12.1589C31.4445 12.1187 31.408 12.0846 31.366 12.0586C31.3239 12.0325 31.2771 12.0151 31.2283 12.0072C31.1795 11.9993 31.1296 12.0012 31.0815 12.0127Z" fill="black"/>
<path d="M0.789078 16.0026C0.789241 13.2966 1.51113 10.6397 2.88031 8.30568C4.24949 5.97168 6.21641 4.0451 8.57828 2.72457C10.9402 1.40404 13.6115 0.737363 16.3169 0.793265C19.0223 0.849168 21.6638 1.62563 23.9691 3.0426C23.7311 3.55166 23.6931 4.13153 23.8624 4.66734C24.0317 5.20315 24.3961 5.65583 24.8833 5.93573C25.3706 6.21562 25.9452 6.3023 26.4934 6.17861C27.0415 6.05493 27.5232 5.72989 27.8431 5.26787C28.1629 4.80586 28.2976 4.24056 28.2204 3.68396C28.1433 3.12735 27.8599 2.62003 27.4264 2.26247C26.9929 1.90491 26.4409 1.7232 25.8798 1.75332C25.3187 1.78343 24.7893 2.02319 24.3966 2.4251C21.9785 0.93027 19.2051 0.108291 16.363 0.044109C13.5209 -0.0200732 10.7132 0.67587 8.2301 2.06002C5.74699 3.44416 3.67856 5.46629 2.23856 7.91743C0.798565 10.3686 0.0392454 13.1598 0.0390776 16.0026C0.0377332 16.977 0.126444 17.9495 0.304078 18.9076C0.319325 18.9939 0.364545 19.0721 0.431772 19.1283C0.498999 19.1846 0.583921 19.2153 0.671578 19.2151C0.694284 19.2151 0.71692 19.2126 0.739078 19.2076C0.836832 19.1899 0.923588 19.1342 0.980302 19.0527C1.03702 18.9711 1.05905 18.8704 1.04158 18.7726C0.873057 17.8589 0.788537 16.9317 0.789078 16.0026Z" fill="black"/>
<path d="M13.75 13.5251V13.7501H18.25V13.5251C18.215 10.4851 13.785 10.4851 13.75 13.5251Z" fill="black"/>
<path d="M26.4872 8.20995C22.2672 8.25245 18.2072 5.64495 16.6547 4.51995C16.4641 4.38223 16.2349 4.30811 15.9997 4.30811C15.7645 4.30811 15.5353 4.38223 15.3447 4.51995C13.7922 5.64495 9.72219 8.24245 5.51219 8.20995C5.36267 8.20847 5.21434 8.23657 5.07573 8.29265C4.93712 8.34873 4.81098 8.43167 4.70455 8.5367C4.59813 8.64173 4.51353 8.76677 4.45563 8.90463C4.39773 9.04248 4.36767 9.19043 4.36719 9.33995C4.36969 15.1125 5.52469 23.37 15.4922 28.415C15.6494 28.4951 15.8233 28.5368 15.9997 28.5368C16.1761 28.5368 16.35 28.4951 16.5072 28.415C26.4747 23.37 27.6297 15.1125 27.6322 9.33995C27.6299 9.03835 27.5081 8.74996 27.2934 8.5381C27.0788 8.32624 26.7888 8.20822 26.4872 8.20995ZM20.1247 19.625C20.1247 20.1222 19.9271 20.5991 19.5755 20.9508C19.2239 21.3024 18.747 21.5 18.2497 21.5H13.7497C13.2524 21.5 12.7755 21.3024 12.4239 20.9508C12.0722 20.5991 11.8747 20.1222 11.8747 19.625V15.625C11.8749 15.2603 11.9814 14.9036 12.1812 14.5985C12.381 14.2935 12.6655 14.0533 12.9997 13.9075V13.52C13.0447 9.50745 18.9547 9.50745 18.9997 13.52V13.9075C19.3339 14.0533 19.6183 14.2935 19.8182 14.5985C20.018 14.9036 20.1245 15.2603 20.1247 15.625V19.625Z" fill="black"/>
<path d="M16.6182 17.1948C16.6127 17.1612 16.6142 17.1269 16.6228 17.094C16.6315 17.0611 16.6469 17.0303 16.6682 17.0038C16.752 16.8827 16.801 16.741 16.81 16.594C16.8189 16.4471 16.7876 16.3005 16.7192 16.1701C16.6508 16.0397 16.5481 15.9305 16.4221 15.8543C16.2961 15.7781 16.1517 15.7378 16.0045 15.7378C15.8572 15.7378 15.7128 15.7781 15.5868 15.8543C15.4608 15.9305 15.3581 16.0397 15.2897 16.1701C15.2214 16.3005 15.19 16.4471 15.199 16.594C15.208 16.741 15.257 16.8827 15.3407 17.0038C15.3619 17.03 15.3773 17.0605 15.3859 17.0931C15.3945 17.1257 15.3962 17.1598 15.3907 17.193C15.332 17.4858 15.1657 18.3228 15.0485 18.9038C15.0342 18.9763 15.0362 19.051 15.0543 19.1226C15.0723 19.1942 15.106 19.2609 15.1529 19.318C15.1999 19.375 15.2588 19.4209 15.3256 19.4525C15.3924 19.484 15.4654 19.5003 15.5392 19.5003H16.4692C16.5432 19.5003 16.6163 19.4839 16.6832 19.4523C16.75 19.4207 16.8091 19.3746 16.856 19.3174C16.9029 19.2602 16.9366 19.1933 16.9545 19.1215C16.9724 19.0497 16.9742 18.9749 16.9597 18.9023L16.6182 17.1948Z" fill="black"/>
</g>
<defs>
<clipPath id="clip0_11668_49939">
<rect width="32" height="32" fill="white"/>
</clipPath>
</defs>
</svg>
