<svg width="55" height="55" viewBox="0 0 55 55" fill="none" xmlns="http://www.w3.org/2000/svg">
<g clip-path="url(#clip0_11668_50011)">
<path d="M12.9531 34.6299L15.8173 34.0211L16.4261 36.8853L13.5619 37.4941L12.9531 34.6299Z" fill="black"/>
<path d="M14.75 43.085L17.6142 42.4762L18.223 45.3404L15.3588 45.9492L14.75 43.085Z" fill="black"/>
<path d="M8.75781 14.8799L26.568 11.0942L27.7804 16.798L9.97019 20.5837L8.75781 14.8799Z" fill="black"/>
<path d="M11.1562 26.1748L14.0204 25.566L14.6291 28.4295L11.7649 29.0383L11.1562 26.1748Z" fill="black"/>
<path d="M43.2861 18.4675C43.1543 17.8453 43.2065 17.1982 43.4362 16.6052L40.0671 14.4166C39.6192 14.8683 39.0492 15.1794 38.427 15.3119C37.6779 15.467 36.8984 15.3643 36.2151 15.0203C35.5318 14.6764 34.9849 14.1115 34.6633 13.4174L33.4062 13.6846L34.329 18.0259C36.2141 17.8057 38.1134 18.2971 39.6553 19.4038C41.1971 20.5105 42.2703 22.1528 42.6649 24.0092C43.0595 25.8656 42.747 27.8024 41.7886 29.4405C40.8302 31.0786 39.295 32.3001 37.4833 32.8657L38.4061 37.207L39.6638 36.9397C39.668 36.4001 39.8023 35.8696 40.0553 35.393C40.3082 34.9165 40.6725 34.508 41.117 34.2023C41.5616 33.8965 42.0733 33.7026 42.6089 33.6368C43.1444 33.5711 43.6878 33.6355 44.1931 33.8247L46.3804 30.4565C45.9294 30.0082 45.6185 29.4383 45.4858 28.8163C45.3317 28.0676 45.435 27.2887 45.779 26.6061C46.123 25.9234 46.6875 25.377 47.381 25.0554L46.5477 21.1352C45.7829 21.1235 45.0445 20.8535 44.4524 20.3693C43.8603 19.885 43.4493 19.2148 43.2861 18.4675Z" fill="black"/>
<path d="M41.2532 24.3092C40.9365 22.8279 40.088 21.5139 38.868 20.6159C37.6481 19.7179 36.1413 19.2982 34.6328 19.436L37.1873 31.4539C38.6215 30.9662 39.8272 29.9699 40.5765 28.6534C41.3257 27.3368 41.5664 25.7913 41.2532 24.3092Z" fill="black"/>
<path d="M29.4884 6.52355L4.35529 11.8658C4.12029 11.9157 3.91473 12.0569 3.7838 12.2584C3.65287 12.4598 3.60727 12.705 3.65704 12.94L11.5323 49.9904C11.5825 50.2254 11.7239 50.4308 11.9254 50.5616C12.1269 50.6924 12.3722 50.7378 12.6072 50.6878L37.7403 45.3456C37.9752 45.2955 38.1806 45.1542 38.3115 44.9529C38.4424 44.7515 38.4881 44.5064 38.4385 44.2713L30.5632 7.22095C30.5129 6.98608 30.3715 6.78076 30.17 6.65002C29.9685 6.51928 29.7234 6.4738 29.4884 6.52355ZM7.20046 14.4758C7.16083 14.2893 7.19689 14.0948 7.30071 13.9349C7.40453 13.775 7.56761 13.6629 7.75407 13.6233L26.9704 9.53875C27.1568 9.49912 27.3514 9.53518 27.5113 9.639C27.6711 9.74282 27.7832 9.9059 27.8228 10.0924L29.3341 17.2022C29.3737 17.3887 29.3377 17.5833 29.2338 17.7431C29.13 17.903 28.9669 18.0151 28.7805 18.0547L9.56419 22.1393C9.37773 22.1789 9.18317 22.1428 9.0233 22.039C8.86342 21.9352 8.75134 21.7721 8.71171 21.5857L7.20046 14.4758ZM19.7798 45.7449C19.8194 45.9314 19.7833 46.126 19.6795 46.2858C19.5757 46.4457 19.4126 46.5578 19.2261 46.5974L14.9559 47.5051C14.7694 47.5447 14.5748 47.5087 14.415 47.4048C14.2551 47.301 14.143 47.1379 14.1034 46.9515L13.1957 42.6812C13.1561 42.4947 13.1921 42.3002 13.296 42.1403C13.3998 41.9804 13.5629 41.8683 13.7493 41.8287L18.0196 40.921C18.2061 40.8814 18.4006 40.9175 18.5605 41.0213C18.7204 41.1251 18.8324 41.2882 18.8721 41.4746L19.7798 45.7449ZM17.9826 37.2901C18.0223 37.4766 17.9862 37.6711 17.8824 37.831C17.7786 37.9909 17.6155 38.103 17.429 38.1426L13.1587 39.0503C12.9723 39.0899 12.7777 39.0539 12.6178 38.95C12.458 38.8462 12.3459 38.6831 12.3063 38.4967L11.3984 34.2257C11.3588 34.0392 11.3949 33.8447 11.4987 33.6848C11.6025 33.5249 11.7656 33.4128 11.952 33.3732L16.2223 32.4655C16.4088 32.4259 16.6033 32.462 16.7632 32.5658C16.9231 32.6696 17.0352 32.8327 17.0748 33.0191L17.9826 37.2901ZM16.1852 28.8339C16.2248 29.0204 16.1888 29.2149 16.085 29.3748C15.9811 29.5347 15.8181 29.6468 15.6316 29.6864L11.3613 30.5941C11.1749 30.6337 10.9803 30.5976 10.8204 30.4938C10.6605 30.39 10.5485 30.2269 10.5088 30.0405L9.60131 25.7709C9.56167 25.5844 9.59773 25.3899 9.70156 25.23C9.80538 25.0701 9.96846 24.958 10.1549 24.9184L14.4252 24.0107C14.6117 23.9711 14.8062 24.0072 14.9661 24.111C15.126 24.2148 15.238 24.3779 15.2777 24.5643L16.1852 28.8339ZM27.3171 44.1428C27.3567 44.3293 27.3207 44.5238 27.2168 44.6837C27.113 44.8436 26.9499 44.9557 26.7635 44.9953L22.4939 45.9028C22.3074 45.9425 22.1129 45.9064 21.953 45.8026C21.7931 45.6988 21.681 45.5357 21.6414 45.3492L20.7337 41.0789C20.6941 40.8925 20.7302 40.6979 20.834 40.538C20.9378 40.3782 21.1009 40.2661 21.2873 40.2265L25.5576 39.3188C25.7441 39.2791 25.9387 39.3152 26.0985 39.419C26.2584 39.5228 26.3705 39.6859 26.4101 39.8724L27.3171 44.1428ZM25.52 35.688C25.5596 35.8745 25.5235 36.069 25.4197 36.2289C25.3159 36.3888 25.1528 36.5009 24.9664 36.5405L20.6968 37.448C20.5103 37.4877 20.3157 37.4516 20.1559 37.3478C19.996 37.244 19.8839 37.0809 19.8443 36.8944L18.9365 32.6234C18.8968 32.437 18.9329 32.2424 19.0367 32.0825C19.1405 31.9227 19.3036 31.8106 19.4901 31.7709L23.7604 30.8633C23.9468 30.8236 24.1414 30.8597 24.3013 30.9635C24.4611 31.0673 24.5732 31.2304 24.6128 31.4169L25.52 35.688ZM23.7225 27.2318C23.7622 27.4183 23.7261 27.6128 23.6223 27.7727C23.5185 27.9326 23.3554 28.0447 23.1689 28.0843L18.8993 28.9918C18.7129 29.0314 18.5183 28.9954 18.3585 28.8916C18.1986 28.7877 18.0865 28.6247 18.0469 28.4382L17.1393 24.1686C17.0997 23.9822 17.1358 23.7876 17.2396 23.6277C17.3434 23.4679 17.5065 23.3558 17.6929 23.3161L21.9632 22.4085C22.1497 22.3688 22.3443 22.4049 22.5041 22.5087C22.664 22.6125 22.7761 22.7756 22.8157 22.9621L23.7225 27.2318ZM34.8544 42.5407C34.894 42.7272 34.858 42.9217 34.7542 43.0816C34.6503 43.2415 34.4873 43.3536 34.3008 43.3932L30.0298 44.301C29.8434 44.3406 29.6488 44.3046 29.4889 44.2008C29.3291 44.0969 29.217 43.9339 29.1773 43.7474L26.4725 31.0223C26.4329 30.8359 26.469 30.6413 26.5728 30.4814C26.6766 30.3216 26.8397 30.2095 27.0261 30.1698L31.2971 29.262C31.4836 29.2224 31.6782 29.2584 31.838 29.3623C31.9979 29.4661 32.11 29.6292 32.1496 29.8156L34.8544 42.5407ZM31.2599 25.6297C31.2995 25.8162 31.2634 26.0107 31.1596 26.1706C31.0558 26.3305 30.8927 26.4425 30.7063 26.4822L26.4353 27.39C26.2488 27.4296 26.0542 27.3936 25.8944 27.2898C25.7345 27.1859 25.6224 27.0229 25.5828 26.8364L24.6753 22.5668C24.6356 22.3804 24.6717 22.1858 24.7755 22.0259C24.8793 21.866 25.0424 21.754 25.2289 21.7143L29.4999 20.8065C29.6863 20.7669 29.8809 20.8029 30.0408 20.9068C30.2006 21.0106 30.3127 21.1737 30.3523 21.3601L31.2599 25.6297Z" fill="black"/>
<path d="M26.2344 22.9707L29.0986 22.3619L29.7072 25.2254L26.843 25.8342L26.2344 22.9707Z" fill="black"/>
<path d="M22.2891 41.4829L25.1533 40.8741L25.7621 43.7383L22.8979 44.3471L22.2891 41.4829Z" fill="black"/>
<path d="M18.6953 24.5728L21.5595 23.9639L22.1682 26.8274L19.304 27.4363L18.6953 24.5728Z" fill="black"/>
<path d="M28.0312 31.4258L30.8955 30.817L33.3015 42.1367L30.4373 42.7455L28.0312 31.4258Z" fill="black"/>
<path d="M20.4922 33.0273L23.3564 32.4185L23.9652 35.2827L21.101 35.8915L20.4922 33.0273Z" fill="black"/>
</g>
<defs>
<clipPath id="clip0_11668_50011">
<rect width="46" height="46" fill="white" transform="translate(0 9.56396) rotate(-12)"/>
</clipPath>
</defs>
</svg>
