<svg width="56" height="56" viewBox="0 0 56 56" fill="none" xmlns="http://www.w3.org/2000/svg">
<g clip-path="url(#clip0_11668_50002)">
<path d="M12.8043 22.5189L10.4062 21.4512L4.00015 35.8395L6.3982 36.9072C7.06044 37.202 7.83626 36.9042 8.13107 36.242L13.4695 24.2517C13.7643 23.5895 13.4665 22.8137 12.8043 22.5189Z" fill="black"/>
<path d="M41.8943 37.3908C41.2588 36.4878 40.2195 35.9984 39.12 36.0826L29.3888 36.8076C28.5472 38.2046 26.7844 38.7999 25.2572 38.12L20.4371 35.9739C20.1057 35.8264 19.9569 35.4389 20.1045 35.1075C20.252 34.7762 20.6395 34.6275 20.9709 34.775L25.791 36.9211C26.7828 37.3626 27.9487 36.9152 28.3902 35.9236C28.8233 34.9508 28.3974 33.8144 27.4449 33.3546C27.0878 33.1906 21.2941 30.6094 21.2941 30.6094L20.1585 27.6516C20.0338 27.3267 19.785 27.0645 19.4671 26.923L14.671 24.7876L9.33228 36.7786L11.4493 37.7211L14.7947 40.6443C16.1752 41.8797 17.5954 43.3278 19.5049 44.178C21.2314 44.9467 23.1877 45.1317 25.157 44.6603L39.9406 42.187C40.9393 42.0032 41.7823 41.3404 42.1941 40.4155C42.6387 39.4168 42.5266 38.2867 41.8943 37.3908Z" fill="black"/>
<path d="M19.0708 18.1253C22.3818 19.5995 26.261 18.1104 27.7351 14.7994C29.2093 11.4884 27.7202 7.60919 24.4092 6.13503C21.0982 4.66087 17.219 6.14995 15.7449 9.46096C14.2707 12.772 15.7598 16.6512 19.0708 18.1253ZM21.4731 12.7297C20.1511 12.1411 19.5539 10.5865 20.1427 9.26395C20.6388 8.14966 21.8205 7.56081 22.971 7.75184L23.0089 7.66665C23.1565 7.33528 23.544 7.18652 23.8754 7.33406C24.2067 7.48159 24.3555 7.86912 24.208 8.20049L24.17 8.28568C25.0818 9.01284 25.4349 10.285 24.9388 11.3993C24.7913 11.7307 24.4038 11.8794 24.0724 11.7319C23.741 11.5844 23.5922 11.1968 23.7398 10.8655C24.0341 10.2045 23.7362 9.42715 23.0746 9.1326C22.413 8.83805 21.636 9.1368 21.3417 9.79779C21.0474 10.4588 21.3453 11.2361 22.0069 11.5307C23.3289 12.1192 23.9261 13.6738 23.3373 14.9964C22.8412 16.1107 21.6595 16.6995 20.509 16.5085L20.4711 16.5937C20.3235 16.9251 19.936 17.0738 19.6046 16.9263C19.2733 16.7787 19.1245 16.3912 19.272 16.0598L19.31 15.9747C18.3982 15.2475 18.0451 13.9753 18.5412 12.861C18.6887 12.5297 19.0762 12.3809 19.4076 12.5284C19.739 12.676 19.8877 13.0635 19.7402 13.3949C19.4459 14.0559 19.7438 14.8332 20.4054 15.1277C21.067 15.4223 21.844 15.1235 22.1383 14.4626C22.4326 13.8016 22.1346 13.0242 21.4731 12.7297Z" fill="black"/>
<path d="M40.6567 27.7347C43.9677 29.2088 47.8469 27.7198 49.3211 24.4088C50.7952 21.0977 49.3062 17.2186 45.9951 15.7444C42.6841 14.2702 38.8049 15.7593 37.3308 19.0703C35.8566 22.3814 37.3457 26.2605 40.6567 27.7347ZM43.059 22.3391C41.737 21.7505 41.1398 20.1959 41.7286 18.8733C42.2247 17.759 43.4064 17.1702 44.5569 17.3612L44.5949 17.276C44.7424 16.9447 45.1299 16.7959 45.4613 16.9434C45.7927 17.091 45.9414 17.4785 45.7939 17.8099L45.756 17.8951C46.6678 18.6222 47.0209 19.8944 46.5248 21.0087C46.3772 21.3401 45.9897 21.4888 45.6583 21.3413C45.3269 21.1937 45.1782 20.8062 45.3257 20.4748C45.62 19.8139 45.3221 19.0365 44.6605 18.742C43.999 18.4474 43.222 18.7462 42.9277 19.4072C42.6334 20.0681 42.9313 20.8455 43.5929 21.14C44.9148 21.7286 45.5121 23.2832 44.9232 24.6058C44.4271 25.7201 43.2454 26.3089 42.0949 26.1179L42.057 26.2031C41.9095 26.5344 41.5219 26.6832 41.1906 26.5357C40.8592 26.3881 40.7104 26.0006 40.858 25.6692L40.8959 25.584C39.9841 24.8569 39.631 23.5847 40.1271 22.4704C40.2746 22.139 40.6622 21.9903 40.9935 22.1378C41.3249 22.2853 41.4737 22.6729 41.3261 23.0042C41.0319 23.6652 41.3298 24.4426 41.9913 24.7371C42.6529 25.0317 43.4299 24.7329 43.7242 24.0719C44.0185 23.4109 43.7206 22.6336 43.059 22.3391Z" fill="black"/>
<path d="M26.1255 31.3231C29.4365 32.7972 33.3157 31.3081 34.7898 27.9971C36.264 24.6861 34.7749 20.8069 31.4639 19.3328C28.1529 17.8586 24.2737 19.3477 22.7995 22.6587C21.3254 25.9697 22.8145 29.8489 26.1255 31.3231ZM25.829 22.7813C26.1675 22.6514 26.5469 22.8203 26.6768 23.1587L27.7357 25.9185L32.807 23.0918C33.125 22.9163 33.5243 23.031 33.7002 23.345C33.8762 23.6619 33.7627 24.0617 33.447 24.2382L27.7146 27.4328C27.5483 27.5258 27.3493 27.541 27.1703 27.4767C27.1557 27.4716 27.1417 27.4654 27.1276 27.4591C26.969 27.3885 26.8449 27.2575 26.782 27.0948L25.4516 23.629C25.3217 23.2906 25.4906 22.9112 25.829 22.7813Z" fill="black"/>
</g>
<defs>
<clipPath id="clip0_11668_50002">
<rect width="42" height="42" fill="white" transform="translate(17.0859) rotate(24)"/>
</clipPath>
</defs>
</svg>
