<svg width="47" height="76" viewBox="0 0 47 76" fill="none" xmlns="http://www.w3.org/2000/svg">
<path d="M23.6823 4.60507L23.969 2.74561C24.0513 2.22005 24.307 1.74226 24.691 1.39698C25.0749 1.05169 25.5622 0.86123 26.0663 0.859375C26.5947 0.867227 27.1034 1.07215 27.5026 1.43794C27.9017 1.80372 28.1656 2.30682 28.2477 2.8583C28.8543 6.75191 30.6103 15.4393 34.781 20.8148C37.311 24.0974 40.4553 26.7926 44.017 28.7316C44.7881 29.119 45.4442 29.7219 45.9143 30.475C46.3843 31.2282 46.6504 32.1028 46.6837 33.0042C46.6664 33.788 46.4617 34.5545 46.0887 35.2323C45.7157 35.9101 45.1865 36.4772 44.5503 36.8809C40.9503 39.2672 33.8543 44.9808 31.917 53.9908C30.6069 60.0568 29.7232 66.2169 29.273 72.4206C29.2343 73.1999 28.9171 73.9345 28.3855 74.4763C27.8539 75.018 27.1476 75.3265 26.4091 75.3394C25.6707 75.3522 24.9551 75.0686 24.4069 74.5457C23.8587 74.0227 23.5187 73.2995 23.4557 72.5221C22.869 66.5788 20.9023 52.8174 14.9117 46.7825C11.5372 43.1948 7.46372 40.4265 2.97434 38.6699C2.39481 38.4794 1.88495 38.1048 1.51418 37.5972C1.14341 37.0895 0.929769 36.4734 0.902344 35.8328C0.914782 35.172 1.14984 34.5375 1.56529 34.0433C1.98074 33.5491 2.54936 33.2276 3.16901 33.1366C5.61439 32.8 8.00219 32.0986 10.261 31.0532C14.0943 29.0923 22.1583 20.8148 23.6823 4.60507Z" fill="#5BECC7"/>
</svg>
