<svg width="26" height="27" viewBox="0 0 26 27" fill="none" xmlns="http://www.w3.org/2000/svg">
<mask id="mask0_10386_29160" style="mask-type:luminance" maskUnits="userSpaceOnUse" x="0" y="0" width="26" height="27">
<path d="M0 0H25.62V26.205H0V0Z" fill="white"/>
<path fill-rule="evenodd" clip-rule="evenodd" d="M10.9853 16.4225L9.37831 15.8455C8.28031 15.4525 6.98131 15.9875 6.47331 17.0415L6.59131 16.7955C6.53186 16.9277 6.52199 17.0768 6.56349 17.2156C6.60499 17.3545 6.69509 17.4737 6.81731 17.5515L9.86731 19.4435C10.3513 19.7435 11.2223 20.0265 11.7953 20.0655C11.7953 20.0655 15.1723 20.2155 15.6593 20.8605L16.2753 21.6765L19.6413 19.1345L19.2113 16.8155L21.3243 17.8635L22.1653 17.2275L21.5493 16.4115C21.0623 15.7665 20.7983 12.7775 20.7983 12.7775C20.7333 12.2055 20.4033 11.3635 20.0543 10.9015L17.4893 7.50653C16.9073 6.76653 15.8073 6.64052 15.0193 7.23552C14.6253 7.53352 14.5353 8.07952 14.8193 8.45552L15.0253 8.72753C14.4573 7.97553 13.3583 7.84952 12.5693 8.44452C12.1753 8.74252 12.0863 9.28852 12.3703 9.66452L12.5753 9.93653C12.0073 9.18453 10.9083 9.05852 10.1203 9.65352C9.72532 9.95152 9.6363 10.4975 9.9203 10.8735L10.1253 11.1455C10.0535 11.0444 9.96606 10.9553 9.86632 10.8815L7.00031 7.53952C6.81356 7.32354 6.55198 7.18626 6.26814 7.15528C5.9843 7.1243 5.69925 7.20191 5.47031 7.37252C5.35967 7.45576 5.26655 7.56003 5.19629 7.67933C5.12603 7.79864 5.08002 7.93063 5.06088 8.06776C5.04174 8.20489 5.04985 8.34444 5.08476 8.47842C5.11967 8.6124 5.18069 8.73817 5.26431 8.84852L7.80731 12.2145L10.9853 16.4225ZM16.2543 11.1205L17.0953 10.4845L19.6383 13.8505L18.7963 14.4855L16.2543 11.1205ZM14.5713 12.3905L15.4133 11.7555L17.9553 15.1215L17.1143 15.7565L14.5713 12.3915V12.3905ZM12.8893 13.6625L13.7303 13.0265L16.2723 16.3925L15.4313 17.0285L12.8893 13.6625Z" fill="black"/>
</mask>
<g mask="url(#mask0_10386_29160)">
<path d="M10.9847 16.4172L10.6957 17.2212L13.3927 18.1882L11.6657 15.9022L10.9847 16.4172ZM11.7947 20.0602L11.7367 20.9122L11.7467 20.9132H11.7567L11.7947 20.0602ZM16.2747 21.6712L15.5927 22.1862L16.1077 22.8682L16.7897 22.3532L16.2747 21.6712ZM19.6407 19.1292L20.1557 19.8102L20.5767 19.4922L20.4807 18.9732L19.6407 19.1292ZM19.2107 16.8102L19.5907 16.0452L18.0597 15.2862L18.3707 16.9662L19.2107 16.8102ZM21.3237 17.8582L20.9437 18.6232L21.4167 18.8582L21.8387 18.5392L21.3237 17.8582ZM22.1647 17.2222L22.6797 17.9042L23.3617 17.3892L22.8467 16.7072L22.1647 17.2222ZM20.7977 12.7722L21.6487 12.6962L21.6477 12.6862L21.6457 12.6762L20.7977 12.7722ZM17.4887 7.50122L18.1707 6.98622L18.1657 6.97922L18.1607 6.97322L17.4887 7.50122ZM9.8657 10.8762L9.21769 11.4322L9.28869 11.5152L9.37869 11.5772L9.8657 10.8762ZM5.2637 8.84423L4.58169 9.35823L5.2637 8.84322V8.84423ZM17.0947 10.4792L17.7767 9.96422L17.2617 9.28222L16.5807 9.79722L17.0947 10.4792ZM19.6377 13.8452L20.1527 14.5262L20.8337 14.0122L20.3197 13.3302L19.6377 13.8452ZM18.7957 14.4802L18.1147 14.9952L18.6297 15.6772L19.3107 15.1622L18.7957 14.4802ZM16.2537 11.1152L15.7387 10.4332L15.0567 10.9482L15.5717 11.6302L16.2537 11.1152ZM15.4127 11.7502L16.0947 11.2352L15.5797 10.5532L14.8977 11.0682L15.4127 11.7502ZM17.9547 15.1162L18.4697 15.7972L19.1517 15.2832L18.6367 14.6012L17.9547 15.1162ZM17.1137 15.7512L16.4317 16.2662L16.9467 16.9482L17.6287 16.4332L17.1137 15.7512ZM14.5707 12.3862L14.0557 11.7042L13.3747 12.2192L13.8897 12.9012L14.5707 12.3862ZM13.7297 13.0212L14.4117 12.5062L13.8967 11.8252L13.2147 12.3402L13.7297 13.0212ZM16.2717 16.3872L16.7867 17.0692L17.4687 16.5542L16.9537 15.8722L16.2717 16.3872ZM15.4307 17.0232L14.7487 17.5382L15.2637 18.2192L15.9457 17.7042L15.4307 17.0232ZM12.8887 13.6572L12.3737 12.9752L11.6917 13.4902L12.2067 14.1722L12.8887 13.6572ZM11.2727 15.6132L9.66569 15.0362L9.08869 16.6442L10.6957 17.2212L11.2727 15.6132ZM9.66569 15.0362C8.15369 14.4942 6.39969 15.2202 5.70269 16.6662L7.2427 17.4062C7.5617 16.7452 8.40569 16.3992 9.08869 16.6442L9.66569 15.0362ZM7.2427 17.4062L7.3607 17.1612L5.82169 16.4202L5.70269 16.6662L7.2427 17.4062ZM5.82169 16.4202C5.50169 17.0832 5.7517 17.8912 6.3657 18.2722L7.26669 16.8202C7.32132 16.8526 7.36223 16.9038 7.38169 16.9642C7.39931 17.0302 7.39183 17.1004 7.3607 17.1612L5.82169 16.4202ZM6.3657 18.2722L9.4167 20.1642L10.3177 18.7122L7.26669 16.8202L6.3657 18.2722ZM9.4167 20.1642C10.0177 20.5362 11.0227 20.8642 11.7367 20.9122L11.8537 19.2082C11.4197 19.1782 10.6837 18.9382 10.3177 18.7122L9.4167 20.1642ZM11.7947 20.0602L11.7567 20.9132H11.7647L11.7897 20.9152C11.9489 20.9222 12.1079 20.9322 12.2667 20.9452C12.5807 20.9692 13.0017 21.0072 13.4337 21.0632C13.8707 21.1202 14.2947 21.1932 14.6247 21.2832C14.7907 21.3282 14.9107 21.3712 14.9867 21.4082C15.0807 21.4522 15.0397 21.4532 14.9767 21.3702L16.3397 20.3402C16.174 20.1339 15.961 19.9706 15.7187 19.8642C15.5107 19.7692 15.2949 19.6922 15.0737 19.6342C14.6069 19.5152 14.1329 19.4267 13.6547 19.3692C13.1017 19.298 12.5464 19.2466 11.9897 19.2152L11.8767 19.2092L11.8457 19.2072H11.8337L11.7947 20.0602ZM14.9767 21.3702L15.5927 22.1862L16.9567 21.1562L16.3397 20.3402L14.9767 21.3702ZM16.7897 22.3532L20.1557 19.8102L19.1257 18.4472L15.7597 20.9892L16.7897 22.3532ZM20.4807 18.9732L20.0507 16.6552L18.3707 16.9662L18.8007 19.2852L20.4807 18.9732ZM18.8317 17.5762L20.9437 18.6232L21.7027 17.0932L19.5907 16.0452L18.8317 17.5762ZM21.8387 18.5392L22.6797 17.9042L21.6497 16.5402L20.8087 17.1762L21.8387 18.5392ZM22.8467 16.7072L22.2297 15.8912L20.8667 16.9212L21.4837 17.7372L22.8467 16.7072ZM22.2297 15.8912C22.2417 15.9072 22.2187 15.8792 22.1757 15.7642C22.128 15.6311 22.0873 15.4956 22.0537 15.3582C21.9643 14.9816 21.8912 14.6012 21.8347 14.2182C21.7636 13.7532 21.7053 13.2864 21.6597 12.8182L21.6507 12.7262L21.6487 12.7032V12.6962L20.7977 12.7722L19.9467 12.8472V12.8572C19.9982 13.8422 20.149 14.8195 20.3967 15.7742C20.4877 16.1362 20.6277 16.6042 20.8667 16.9212L22.2297 15.8912ZM21.6457 12.6762C21.5907 12.2653 21.4835 11.863 21.3267 11.4792C21.1779 11.0892 20.9792 10.7202 20.7357 10.3812L19.3717 11.4112C19.4847 11.5612 19.6207 11.8112 19.7377 12.1072C19.8547 12.4022 19.9267 12.6802 19.9487 12.8672L21.6457 12.6762ZM20.7357 10.3812L18.1707 6.98622L16.8077 8.01622L19.3717 11.4112L20.7357 10.3812ZM18.1607 6.97322C17.2727 5.84622 15.6407 5.68922 14.5037 6.54822L15.5337 7.91222C15.9737 7.58022 16.5397 7.67722 16.8177 8.03022L18.1607 6.97322ZM14.5037 6.54822C13.7637 7.10822 13.5457 8.18222 14.1377 8.96522L15.5007 7.93522C15.5036 7.93906 15.5057 7.9435 15.5067 7.94822C15.5057 7.95222 15.5077 7.95222 15.5067 7.94822C15.5077 7.94222 15.5137 7.92722 15.5337 7.91222L14.5037 6.54822ZM14.1377 8.96522L14.3427 9.23722L15.7057 8.20722L15.5007 7.93522L14.1377 8.96522ZM15.7057 8.20722C14.8307 7.04822 13.1877 6.90122 12.0547 7.75722L13.0837 9.12122C13.5267 8.78622 14.0817 8.89122 14.3427 9.23722L15.7057 8.20722ZM12.0547 7.75722C11.3147 8.31722 11.0967 9.39122 11.6877 10.1742L13.0507 9.14422L13.0577 9.15722C13.0577 9.16122 13.0577 9.16122 13.0577 9.15722C13.0587 9.15122 13.0647 9.13622 13.0837 9.12122L12.0547 7.75722ZM11.6877 10.1742L11.8927 10.4462L13.2567 9.41622L13.0507 9.14422L11.6877 10.1742ZM13.2567 9.41622C12.3817 8.25722 10.7387 8.11022 9.6047 8.96622L10.6347 10.3302C11.0777 9.99523 11.6327 10.1002 11.8927 10.4462L13.2567 9.41622ZM9.6047 8.96622C8.8647 9.52622 8.64669 10.6002 9.23769 11.3832L10.6017 10.3532L10.6077 10.3662C10.6087 10.3702 10.6077 10.3702 10.6087 10.3662C10.6097 10.3602 10.6147 10.3452 10.6347 10.3302L9.6047 8.96622ZM9.23769 11.3832L9.44369 11.6552L10.8067 10.6252L10.6017 10.3532L9.23769 11.3832ZM10.8067 10.6252C10.6804 10.452 10.5275 10.2997 10.3537 10.1742L9.37869 11.5772C9.36869 11.5702 9.3707 11.5702 9.3827 11.5832C9.40463 11.6058 9.425 11.6299 9.44369 11.6552L10.8067 10.6252ZM10.5147 10.3192L7.64869 6.97822L6.35169 8.09022L9.21769 11.4322L10.5147 10.3192ZM7.64869 6.97822C7.32035 6.59711 6.85957 6.35488 6.35948 6.30049C5.85938 6.2461 5.35728 6.38361 4.95469 6.68522L5.98469 8.04822C6.04032 8.00885 6.10851 7.99137 6.17622 7.99912C6.24393 8.00687 6.3064 8.0393 6.35169 8.09022L7.64869 6.97822ZM4.95469 6.68522C4.75442 6.83604 4.58589 7.02389 4.45872 7.23995C4.33155 7.45601 4.24825 7.69503 4.2136 7.94333C4.17895 8.19163 4.19364 8.44433 4.2568 8.68695C4.31996 8.92956 4.43036 9.15734 4.58169 9.35722L5.94569 8.32722C5.92949 8.30642 5.91763 8.28259 5.91081 8.25712C5.90398 8.23166 5.90235 8.20508 5.90598 8.17897C5.90962 8.15286 5.91846 8.12775 5.93199 8.10512C5.94551 8.08249 5.96342 8.0638 5.98469 8.04822L4.95469 6.68522ZM4.58169 9.35722L7.12469 12.7232L8.48769 11.6932L5.94569 8.32722L4.58169 9.35823V9.35722ZM7.12469 12.7232L10.3027 16.9312L11.6657 15.9022L8.48769 11.6932L7.12469 12.7232ZM16.7687 11.7952L17.6097 11.1602L16.5807 9.79722L15.7387 10.4332L16.7687 11.7952ZM16.4137 10.9932L18.9557 14.3592L20.3197 13.3292L17.7767 9.96422L16.4137 10.9932ZM19.1227 13.1632L18.2807 13.7982L19.3107 15.1622L20.1527 14.5262L19.1227 13.1632ZM19.4777 13.9642L16.9357 10.5992L15.5717 11.6302L18.1147 14.9952L19.4777 13.9642ZM15.0857 13.0662L15.9277 12.4312L14.8977 11.0682L14.0557 11.7042L15.0857 13.0662ZM14.7307 12.2642L17.2727 15.6302L18.6367 14.6012L16.0947 11.2352L14.7307 12.2642ZM17.4397 14.4342L16.5987 15.0692L17.6287 16.4332L18.4697 15.7972L17.4397 14.4342ZM17.7947 15.2352L15.2527 11.8702L13.8897 12.9012L16.4317 16.2662L17.7947 15.2352ZM13.4037 14.3382L14.2447 13.7022L13.2147 12.3402L12.3737 12.9752L13.4037 14.3382ZM13.0477 13.5352L15.5907 16.9012L16.9537 15.8712L14.4117 12.5062L13.0477 13.5352ZM15.7577 15.7052L14.9157 16.3402L15.9457 17.7042L16.7867 17.0692L15.7577 15.7042V15.7052ZM16.1127 16.5072L13.5697 13.1412L12.2067 14.1722L14.7487 17.5382L16.1127 16.5072Z" fill="black"/>
</g>
</svg>
