<svg width="30" height="30" viewBox="0 0 30 30" fill="none" xmlns="http://www.w3.org/2000/svg">
<g clip-path="url(#clip0_11668_49992)">
<path fill-rule="evenodd" clip-rule="evenodd" d="M3.1462 29.7237C2.35243 29.7237 1.58803 29.4236 1.00619 28.8837C0.424356 28.3437 0.0680878 27.6038 0.00879595 26.8123C-0.0504959 26.0207 0.19157 25.236 0.686475 24.6154C1.18138 23.9949 1.89255 23.5842 2.67745 23.4659V20.7493C2.67739 20.6878 2.68948 20.6268 2.71302 20.5699C2.73656 20.513 2.77108 20.4613 2.81462 20.4178C2.85816 20.3742 2.90985 20.3397 2.96675 20.3162C3.02365 20.2926 3.08462 20.2805 3.1462 20.2806H14.531V18.0495H6.48405C6.21868 18.0491 5.95806 17.979 5.72834 17.8462C5.49862 17.7134 5.30787 17.5224 5.17522 17.2926C5.04258 17.0628 4.97271 16.8021 4.97262 16.5367C4.97253 16.2714 5.04222 16.0106 5.17471 15.7807L13.6908 1.02985C13.8239 0.800653 14.0149 0.610424 14.2446 0.478194C14.4743 0.345963 14.7347 0.276367 14.9997 0.276367C15.2648 0.276367 15.5252 0.345963 15.7549 0.478194C15.9846 0.610424 16.1755 0.800653 16.3086 1.02985L24.8243 15.7807C24.9568 16.0107 25.0265 16.2714 25.0264 16.5368C25.0263 16.8022 24.9564 17.0629 24.8237 17.2928C24.691 17.5226 24.5002 17.7135 24.2704 17.8464C24.0406 17.9792 23.78 18.0492 23.5146 18.0495H15.4685V20.2805H26.9126C26.9741 20.2805 27.0351 20.2926 27.0919 20.3161C27.1488 20.3397 27.2005 20.3742 27.244 20.4177C27.2875 20.4613 27.322 20.513 27.3455 20.5698C27.369 20.6267 27.3811 20.6877 27.381 20.7492V23.4786C28.1605 23.6143 28.86 24.0396 29.3392 24.6692C29.8184 25.2988 30.042 26.0863 29.9651 26.8739C29.8882 27.6614 29.5166 28.3908 28.9246 28.9158C28.3327 29.4409 27.5641 29.7228 26.7731 29.7052C25.982 29.6875 25.2268 29.3716 24.6589 28.8206C24.0909 28.2697 23.7521 27.5245 23.7105 26.7343C23.6688 25.9441 23.9272 25.1674 24.4341 24.5598C24.9409 23.9521 25.6587 23.5584 26.4435 23.4577V21.2182H15.4685V23.4659C16.2536 23.5842 16.9651 23.9949 17.4602 24.6156C17.9553 25.2364 18.1975 26.0213 18.1382 26.8132C18.0789 27.605 17.7225 28.3451 17.1405 28.8852C16.5584 29.4253 15.7937 29.7254 14.9997 29.7254C14.2057 29.7254 13.441 29.4253 12.8589 28.8852C12.2769 28.3451 11.9205 27.605 11.8612 26.8132C11.8019 26.0213 12.0441 25.2364 12.5392 24.6156C13.0343 23.9949 13.7458 23.5842 14.531 23.4659V21.2182H3.61495V23.4659C4.39984 23.5842 5.11101 23.9949 5.60592 24.6154C6.10082 25.236 6.34289 26.0207 6.2836 26.8123C6.22431 27.6038 5.86804 28.3437 5.2862 28.8837C4.70437 29.4236 3.93996 29.7237 3.1462 29.7237ZM14.9997 14.1273C15.0201 14.1272 15.0399 14.1211 15.0568 14.1097C15.0736 14.0983 15.0867 14.0821 15.0943 14.0632C15.102 14.0444 15.1038 14.0236 15.0996 14.0037C15.0955 13.9838 15.0854 13.9656 15.0709 13.9514C15.0563 13.9372 15.0378 13.9276 15.0178 13.9239C14.9978 13.9202 14.9772 13.9226 14.9585 13.9307C14.9398 13.9388 14.924 13.9523 14.913 13.9694C14.902 13.9865 14.8963 14.0065 14.8968 14.0269C14.8973 14.0538 14.9085 14.0794 14.9277 14.0981C14.947 14.1169 14.9728 14.1274 14.9997 14.1273ZM14.9997 12.9847C14.7941 12.9848 14.5931 13.0458 14.4222 13.1601C14.2512 13.2743 14.118 13.4367 14.0392 13.6266C13.9605 13.8166 13.9398 14.0256 13.9799 14.2273C14.0199 14.429 14.1187 14.6143 14.264 14.7598C14.4093 14.9053 14.5944 15.0045 14.7961 15.0448C14.9977 15.0852 15.2067 15.0648 15.3968 14.9864C15.5869 14.908 15.7495 14.775 15.864 14.6043C15.9785 14.4335 16.0399 14.2326 16.0403 14.027C16.0406 13.8902 16.0139 13.7546 15.9617 13.6282C15.9095 13.5017 15.8329 13.3867 15.7363 13.2899C15.6396 13.193 15.5248 13.1162 15.3984 13.0638C15.272 13.0114 15.1365 12.9844 14.9997 12.9844V12.9847ZM15.2806 7.31708C15.2501 7.27999 15.2113 7.25048 15.1675 7.23087C15.1236 7.21126 15.0758 7.20208 15.0278 7.20405H14.9716C14.9236 7.20216 14.8757 7.21138 14.8318 7.23098C14.7879 7.25058 14.7491 7.28004 14.7184 7.31708C14.6854 7.35185 14.6606 7.3936 14.6459 7.43924C14.6312 7.48488 14.6269 7.53324 14.6334 7.58075L14.9997 10.9923L15.366 7.58081C15.3723 7.53327 15.3679 7.48493 15.3532 7.4393C15.3384 7.39368 15.3136 7.35188 15.2806 7.31708ZM14.0215 6.68919C13.9001 6.82193 13.8087 6.97921 13.7535 7.15038C13.6982 7.32154 13.6804 7.50259 13.7013 7.68124L14.1839 12.1768C14.206 12.3777 14.3014 12.5633 14.4519 12.6981C14.6024 12.8329 14.7973 12.9074 14.9993 12.9074C15.2013 12.9074 15.3962 12.8329 15.5467 12.6981C15.6972 12.5633 15.7926 12.3777 15.8147 12.1768L16.2977 7.68124C16.3171 7.50292 16.2987 7.32252 16.2437 7.15179C16.1887 6.98106 16.0984 6.82383 15.9786 6.69035C15.8588 6.55687 15.7122 6.45013 15.5483 6.37709C15.3845 6.30405 15.2071 6.26635 15.0278 6.26643H14.9716C14.7922 6.2644 14.6144 6.30111 14.4504 6.37407C14.2864 6.44703 14.1401 6.55451 14.0215 6.68919ZM8.49452 15.3747H21.5045L14.9997 4.10643L8.49452 15.3747ZM15.4053 2.93438C15.3642 2.86311 15.3051 2.80391 15.2338 2.76276C15.1626 2.7216 15.0818 2.69993 14.9995 2.69993C14.9172 2.69993 14.8364 2.7216 14.7652 2.76276C14.6939 2.80391 14.6348 2.86311 14.5937 2.93438L7.27641 15.6091C7.23527 15.6804 7.21361 15.7612 7.21361 15.8435C7.21362 15.9258 7.23528 16.0066 7.27644 16.0779C7.31759 16.1491 7.37678 16.2083 7.44805 16.2495C7.51933 16.2906 7.60017 16.3122 7.68247 16.3122H22.3165C22.3989 16.3124 22.4799 16.2909 22.5513 16.2497C22.6227 16.2086 22.6819 16.1493 22.723 16.0778C22.7637 16.0064 22.7851 15.9257 22.7851 15.8435C22.7851 15.7613 22.7637 15.6805 22.723 15.6091L15.4053 2.93438Z" fill="black"/>
</g>
<defs>
<clipPath id="clip0_11668_49992">
<rect width="30" height="30" fill="white"/>
</clipPath>
</defs>
</svg>
