<svg width="22" height="22" viewBox="0 0 22 22" fill="none" xmlns="http://www.w3.org/2000/svg">
<g clip-path="url(#clip0_2355_43582)">
<path d="M5.66723 18.3329C5.78644 18.2138 5.78644 18.0205 5.66723 17.9014C5.54806 17.7822 5.35486 17.7822 5.23569 17.9014L2.12843 21.0086C2.00927 21.1278 2.00927 21.321 2.12843 21.4402C2.2476 21.5593 2.44086 21.5593 2.56002 21.4402L5.66723 18.3329Z" fill="#4976E7"/>
<path d="M4.09696 16.7612C4.21613 16.642 4.21613 16.4488 4.09696 16.3296C3.97775 16.2104 3.78454 16.2104 3.66538 16.3296L0.558122 19.4369C0.438959 19.556 0.438959 19.7492 0.558122 19.8684C0.677284 19.9876 0.870543 19.9876 0.989705 19.8684L4.09696 16.7612Z" fill="#4976E7"/>
<path d="M3.62821 18.8034C3.74738 18.6842 3.74738 18.491 3.62821 18.3718C3.509 18.2527 3.31579 18.2527 3.19663 18.3718L0.0893719 21.4791C-0.0297906 21.5983 -0.0297906 21.7915 0.0893719 21.9106C0.208534 22.0298 0.401793 22.0298 0.520955 21.9106L3.62821 18.8034Z" fill="#4976E7"/>
<path fill-rule="evenodd" clip-rule="evenodd" d="M10.0943 5.62598C7.54916 6.0771 3.45566 6.75832 1.02344 11.9915C1.02344 11.9915 3.86182 11.8734 5.81668 12.37C5.91144 12.0409 6.05217 11.6928 6.18534 11.3787C6.54074 10.5403 6.97557 9.72638 7.45908 8.95527L7.51856 8.86042L7.51576 8.85768L7.59478 8.73887L7.78464 8.43609L7.79175 8.4432C8.46952 7.43534 9.24245 6.49173 10.0943 5.62598Z" fill="#4976E7"/>
<path fill-rule="evenodd" clip-rule="evenodd" d="M10.0114 20.9793C15.2451 18.5468 15.9177 14.4613 16.3671 11.9182C15.504 12.7662 14.5636 13.5358 13.5596 14.211L13.5667 14.2181L13.2636 14.4082L13.1452 14.487L13.1424 14.4842L13.0476 14.5437C12.2765 15.0272 11.4626 15.462 10.6242 15.8174C10.31 15.9506 9.96198 16.0913 9.63281 16.1861C10.1295 18.141 10.0114 20.9793 10.0114 20.9793Z" fill="#4976E7"/>
<path fill-rule="evenodd" clip-rule="evenodd" d="M6.24758 13.1609L5.60005 13.8084C5.40415 14.0043 5.40415 14.3249 5.60005 14.5208L5.63425 14.555L6.54061 15.4613L7.44702 16.3677L7.48122 16.4019C7.67712 16.5978 7.99766 16.5978 8.19351 16.4019L8.84109 15.7543L6.24758 13.1609Z" fill="#4976E7"/>
<path fill-rule="evenodd" clip-rule="evenodd" d="M5.28664 14.9001L4.63911 15.5477C4.44321 15.7436 4.44321 16.0641 4.63911 16.26L5.18935 16.8102L5.73959 17.3605C5.93549 17.5564 6.25603 17.5563 6.45192 17.3605L7.0994 16.713L5.28664 14.9001Z" fill="#4976E7"/>
<path fill-rule="evenodd" clip-rule="evenodd" d="M20.6826 4.49554C21.2213 3.15344 21.6737 1.66005 22.0026 0C20.3428 0.328813 18.8497 0.781154 17.5078 1.31967C17.5918 2.11011 17.9894 2.86021 18.5645 3.43551C19.1408 4.01194 19.8925 4.41033 20.6826 4.49554Z" fill="#4976E7"/>
<path fill-rule="evenodd" clip-rule="evenodd" d="M16.5282 11.0536C17.9745 9.52303 19.3888 7.53121 20.4868 4.96135C19.6353 4.83427 18.8351 4.39696 18.2177 3.77942C17.6014 3.16285 17.1648 2.36414 17.0388 1.5127C14.4749 2.60805 12.4862 4.01836 10.9571 5.46115C9.75181 6.59837 8.8319 7.75574 8.14062 8.79506L13.2046 13.859C14.2408 13.1699 15.3943 12.2535 16.5282 11.0536ZM13.4403 5.22044C14.2704 4.39031 15.6163 4.39031 16.4465 5.22044C17.2766 6.05051 17.2766 7.39642 16.4465 8.22655C15.6163 9.05668 14.2704 9.05668 13.4404 8.22655C12.6102 7.39642 12.6102 6.05051 13.4403 5.22044Z" fill="#4976E7"/>
<path fill-rule="evenodd" clip-rule="evenodd" d="M12.7843 14.1301L7.86883 9.2146C6.68457 11.1033 6.28125 12.5075 6.28125 12.5075L6.58961 12.8158L7.88634 14.1125L9.18307 15.4093L9.49143 15.7176C9.49143 15.7176 10.8956 15.3143 12.7843 14.1301Z" fill="#4976E7"/>
</g>
<defs>
<clipPath id="clip0_2355_43582">
<rect width="22" height="22" fill="white"/>
</clipPath>
</defs>
</svg>
