<svg width="114" height="114" viewBox="0 0 114 114" fill="none" xmlns="http://www.w3.org/2000/svg">
<g filter="url(#filter0_d_6461_91707)">
<rect x="7.90625" y="12.5195" width="85" height="85" rx="42.5" fill="url(#paint0_linear_6461_91707)"/>
</g>
<g clip-path="url(#clip0_6461_91707)">
<path d="M69.0313 31.957C67.0596 31.957 65.1323 32.5417 63.4929 33.6371C61.8536 34.7324 60.5758 36.2894 59.8213 38.1109C59.0668 39.9325 58.8694 41.9368 59.2541 43.8706C59.6387 45.8043 60.5881 47.5806 61.9823 48.9748C63.3764 50.3689 65.1527 51.3183 67.0864 51.703C69.0202 52.0876 71.0246 51.8902 72.8461 51.1357C74.6677 50.3812 76.2246 49.1035 77.32 47.4641C78.4153 45.8248 79 43.8974 79 41.9258C78.997 39.2828 77.9458 36.749 76.0769 34.8801C74.2081 33.0113 71.6742 31.96 69.0313 31.957ZM69.0313 41.0195C69.672 41.0179 70.2926 41.2433 70.7831 41.6556C71.2735 42.0679 71.6022 42.6405 71.7108 43.272C71.8194 43.9034 71.7009 44.553 71.3763 45.1054C71.0517 45.6578 70.542 46.0775 69.9375 46.29V46.457C69.9375 46.6974 69.842 46.9279 69.6721 47.0978C69.5021 47.2678 69.2716 47.3633 69.0313 47.3633C68.7909 47.3633 68.5604 47.2678 68.3904 47.0978C68.2205 46.9279 68.125 46.6974 68.125 46.457H67.2188C66.9784 46.457 66.7479 46.3616 66.5779 46.1916C66.408 46.0216 66.3125 45.7911 66.3125 45.5508C66.3125 45.3104 66.408 45.0799 66.5779 44.91C66.7479 44.74 66.9784 44.6445 67.2188 44.6445H69.0313C69.2716 44.6445 69.5021 44.5491 69.6721 44.3791C69.842 44.2091 69.9375 43.9786 69.9375 43.7383C69.9375 43.4979 69.842 43.2674 69.6721 43.0975C69.5021 42.9275 69.2716 42.832 69.0313 42.832C68.3905 42.8336 67.7699 42.6083 67.2794 42.196C66.789 41.7837 66.4603 41.2111 66.3517 40.5796C66.2431 39.9481 66.3617 39.2986 66.6862 38.7462C67.0108 38.1937 67.5205 37.774 68.125 37.5615V37.3945C68.125 37.1542 68.2205 36.9237 68.3904 36.7537C68.5604 36.5838 68.7909 36.4883 69.0313 36.4883C69.2716 36.4883 69.5021 36.5838 69.6721 36.7537C69.842 36.9237 69.9375 37.1542 69.9375 37.3945H70.8438C71.0841 37.3945 71.3146 37.49 71.4846 37.66C71.6545 37.8299 71.75 38.0604 71.75 38.3008C71.75 38.5411 71.6545 38.7716 71.4846 38.9416C71.3146 39.1116 71.0841 39.207 70.8438 39.207H69.0313C68.7909 39.207 68.5604 39.3025 68.3904 39.4725C68.2205 39.6424 68.125 39.8729 68.125 40.1133C68.125 40.3536 68.2205 40.5841 68.3904 40.7541C68.5604 40.9241 68.7909 41.0195 69.0313 41.0195Z" fill="white"/>
<path d="M37.3125 45.5508C37.3125 44.349 37.7899 43.1965 38.6397 42.3467C39.4894 41.4969 40.642 41.0195 41.8438 41.0195C43.0455 41.0195 44.1981 41.4969 45.0478 42.3467C45.8976 43.1965 46.375 44.349 46.375 45.5508V50.082H51.8125C52.2886 50.0822 52.76 49.9885 53.1999 49.8064C53.6398 49.6242 54.0394 49.3572 54.3761 49.0206C54.7127 48.684 54.9797 48.2843 55.1618 47.8444C55.344 47.4046 55.4376 46.9331 55.4375 46.457V37.3945C55.4376 36.9185 55.344 36.447 55.1618 36.0071C54.9797 35.5673 54.7127 35.1676 54.3761 34.831C54.0394 34.4943 53.6398 34.2273 53.1999 34.0452C52.76 33.8631 52.2886 33.7694 51.8125 33.7695H26.4375C25.9614 33.7694 25.49 33.8631 25.0501 34.0452C24.6102 34.2273 24.2106 34.4943 23.8739 34.831C23.5373 35.1676 23.2703 35.5673 23.0882 36.0071C22.906 36.447 22.8124 36.9185 22.8125 37.3945V46.457C22.8124 46.9331 22.906 47.4046 23.0882 47.8444C23.2703 48.2843 23.5373 48.684 23.8739 49.0206C24.2106 49.3572 24.6102 49.6242 25.0501 49.8064C25.49 49.9885 25.9614 50.0822 26.4375 50.082H37.3125V45.5508Z" fill="white"/>
<path d="M59.0625 59.1445C58.5818 59.1445 58.1208 59.3355 57.7809 59.6754C57.441 60.0153 57.25 60.4763 57.25 60.957V67.3008C57.25 67.5411 57.1545 67.7716 56.9846 67.9416C56.8146 68.1116 56.5841 68.207 56.3438 68.207C56.1034 68.207 55.8729 68.1116 55.7029 67.9416C55.533 67.7716 55.4375 67.5411 55.4375 67.3008V58.2383C55.4375 57.7576 55.2465 57.2966 54.9066 56.9566C54.5667 56.6167 54.1057 56.4258 53.625 56.4258C53.1443 56.4258 52.6833 56.6167 52.3434 56.9566C52.0035 57.2966 51.8125 57.7576 51.8125 58.2383V67.3008C51.8125 67.5411 51.717 67.7716 51.5471 67.9416C51.3771 68.1116 51.1466 68.207 50.9062 68.207C50.6659 68.207 50.4354 68.1116 50.2654 67.9416C50.0955 67.7716 50 67.5411 50 67.3008V56.4258C50 55.9451 49.809 55.4841 49.4691 55.1442C49.1292 54.8042 48.6682 54.6133 48.1875 54.6133C47.7068 54.6133 47.2458 54.8042 46.9059 55.1442C46.566 55.4841 46.375 55.9451 46.375 56.4258V67.3008C46.375 67.5411 46.2795 67.7716 46.1096 67.9416C45.9396 68.1116 45.7091 68.207 45.4688 68.207C45.2284 68.207 44.9979 68.1116 44.8279 67.9416C44.658 67.7716 44.5625 67.5411 44.5625 67.3008V45.5508C44.5625 44.8297 44.2761 44.1382 43.7662 43.6283C43.2563 43.1185 42.5648 42.832 41.8438 42.832C41.1227 42.832 40.4312 43.1185 39.9213 43.6283C39.4114 44.1382 39.125 44.8297 39.125 45.5508V67.3008C39.125 67.5411 39.0295 67.7716 38.8596 67.9416C38.6896 68.1116 38.4591 68.207 38.2188 68.207C37.9784 68.207 37.7479 68.1116 37.5779 67.9416C37.408 67.7716 37.3125 67.5411 37.3125 67.3008V62.7695C37.3125 61.5678 36.8351 60.4152 35.9853 59.5655C35.1356 58.7157 33.983 58.2383 32.7812 58.2383H31.875C31.6349 58.239 31.4048 58.3347 31.235 58.5045C31.0652 58.6743 30.9695 58.9044 30.9688 59.1445V75.8261C30.9687 76.9515 31.3204 78.0486 31.9747 78.9642L35.6722 84.1389C35.7553 84.2563 35.8653 84.3521 35.993 84.4183C36.1207 84.4845 36.2624 84.5192 36.4062 84.5195H55.4391C55.5928 84.5195 55.744 84.4804 55.8785 84.4059C56.013 84.3314 56.1263 84.2239 56.2078 84.0936L60.0503 77.9492C60.5862 77.0832 60.8716 76.0857 60.875 75.0673V60.957C60.875 60.4763 60.684 60.0153 60.3441 59.6754C60.0042 59.3355 59.5432 59.1445 59.0625 59.1445Z" fill="white"/>
<path d="M39.125 31.957C39.244 31.9571 39.3619 31.9336 39.4718 31.8881C39.5818 31.8426 39.6817 31.7758 39.7659 31.6917C39.85 31.6075 39.9168 31.5076 39.9623 31.3976C40.0079 31.2877 40.0313 31.1698 40.0312 31.0508V27.4258C40.0312 27.1854 39.9358 26.9549 39.7658 26.785C39.5959 26.615 39.3654 26.5195 39.125 26.5195C38.8846 26.5195 38.6541 26.615 38.4842 26.785C38.3142 26.9549 38.2188 27.1854 38.2188 27.4258V31.0508C38.2187 31.1698 38.2421 31.2877 38.2877 31.3976C38.3332 31.5076 38.4 31.6075 38.4841 31.6917C38.5683 31.7758 38.6682 31.8426 38.7782 31.8881C38.8881 31.9336 39.006 31.9571 39.125 31.957Z" fill="white"/>
<path d="M32.0243 31.5535C32.1587 31.7509 32.3656 31.8873 32.6001 31.933C32.8345 31.9787 33.0774 31.93 33.2761 31.7975C33.4749 31.665 33.6132 31.4595 33.6612 31.2255C33.7092 30.9915 33.6629 30.7481 33.5323 30.5481L31.7198 27.8294C31.6544 27.7291 31.5697 27.6428 31.4707 27.5754C31.3717 27.5081 31.2603 27.461 31.143 27.4369C31.0257 27.4129 30.9047 27.4123 30.7872 27.4353C30.6697 27.4582 30.5579 27.5042 30.4582 27.5707C30.3586 27.6371 30.2731 27.7226 30.2067 27.8223C30.1403 27.9219 30.0943 28.0338 30.0714 28.1513C30.0485 28.2689 30.0491 28.3898 30.0732 28.5071C30.0973 28.6244 30.1444 28.7358 30.2118 28.8347L32.0243 31.5535Z" fill="white"/>
<path d="M45.4678 31.9571C45.6172 31.9573 45.7643 31.9206 45.896 31.8502C46.0277 31.7798 46.14 31.6778 46.2227 31.5535L48.0352 28.8347C48.1026 28.7358 48.1497 28.6244 48.1738 28.5071C48.1979 28.3898 48.1985 28.2689 48.1756 28.1513C48.1527 28.0338 48.1067 27.9219 48.0403 27.8223C47.9739 27.7226 47.8885 27.6371 47.7888 27.5707C47.6892 27.5042 47.5774 27.4582 47.4598 27.4353C47.3423 27.4123 47.2214 27.4129 47.1041 27.4369C46.9867 27.461 46.8754 27.5081 46.7763 27.5754C46.6773 27.6428 46.5927 27.7291 46.5272 27.8294L44.7147 30.5481C44.6238 30.6845 44.5715 30.8431 44.5636 31.0068C44.5556 31.1706 44.5922 31.3334 44.6695 31.478C44.7468 31.6226 44.8619 31.7435 45.0024 31.8279C45.143 31.9122 45.3038 31.9569 45.4678 31.9571Z" fill="white"/>
<path d="M58.1561 34.6756C58.2751 34.6758 58.393 34.6524 58.5029 34.6068C58.6129 34.5612 58.7127 34.4944 58.7968 34.4101L59.703 33.5038C59.7884 33.42 59.8564 33.32 59.9029 33.2098C59.9495 33.0995 59.9737 32.9811 59.9743 32.8614C59.9748 32.7417 59.9516 32.6231 59.9061 32.5124C59.8605 32.4018 59.7935 32.3012 59.7089 32.2166C59.6242 32.1319 59.5237 32.0649 59.413 32.0194C59.3023 31.9738 59.1837 31.9506 59.064 31.9512C58.9443 31.9517 58.8259 31.976 58.7157 32.0225C58.6054 32.0691 58.5054 32.137 58.4216 32.2224L57.5153 33.1287C57.3886 33.2554 57.3024 33.4169 57.2674 33.5926C57.2325 33.7684 57.2504 33.9506 57.319 34.1162C57.3875 34.2817 57.5037 34.4233 57.6527 34.5228C57.8017 34.6224 57.9768 34.6756 58.1561 34.6756Z" fill="white"/>
<path d="M58.4237 51.629C58.5076 51.7144 58.6075 51.7823 58.7178 51.8288C58.828 51.8754 58.9464 51.8996 59.0661 51.9002C59.1858 51.9007 59.3044 51.8776 59.4151 51.832C59.5258 51.7864 59.6263 51.7194 59.711 51.6348C59.7956 51.5502 59.8626 51.4496 59.9082 51.3389C59.9537 51.2282 59.9769 51.1096 59.9764 50.9899C59.9758 50.8703 59.9516 50.7519 59.905 50.6416C59.8585 50.5313 59.7905 50.4314 59.7051 50.3475L58.7989 49.4413C58.6284 49.2739 58.3988 49.1806 58.1599 49.1816C57.921 49.1827 57.6921 49.2781 57.5232 49.447C57.3543 49.616 57.2589 49.8448 57.2578 50.0837C57.2567 50.3226 57.35 50.5523 57.5174 50.7227L58.4237 51.629Z" fill="white"/>
</g>
<defs>
<filter id="filter0_d_6461_91707" x="-0.000726581" y="0.000151873" width="113.992" height="113.992" filterUnits="userSpaceOnUse" color-interpolation-filters="sRGB">
<feFlood flood-opacity="0" result="BackgroundImageFix"/>
<feColorMatrix in="SourceAlpha" type="matrix" values="0 0 0 0 0 0 0 0 0 0 0 0 0 0 0 0 0 0 127 0" result="hardAlpha"/>
<feMorphology radius="1.31783" operator="dilate" in="SourceAlpha" result="effect1_dropShadow_6461_91707"/>
<feOffset dx="6.58915" dy="1.97674"/>
<feGaussianBlur stdDeviation="6.58915"/>
<feComposite in2="hardAlpha" operator="out"/>
<feColorMatrix type="matrix" values="0 0 0 0 0.568627 0 0 0 0 0.666667 0 0 0 0 0.980392 0 0 0 0.2 0"/>
<feBlend mode="normal" in2="BackgroundImageFix" result="effect1_dropShadow_6461_91707"/>
<feBlend mode="normal" in="SourceGraphic" in2="effect1_dropShadow_6461_91707" result="shape"/>
</filter>
<linearGradient id="paint0_linear_6461_91707" x1="23.4351" y1="12.1109" x2="67.1611" y2="102.015" gradientUnits="userSpaceOnUse">
<stop stop-color="#B187FF"/>
<stop offset="1" stop-color="#D0B6FF"/>
</linearGradient>
<clipPath id="clip0_6461_91707">
<rect width="58" height="58" fill="white" transform="translate(21.9062 26.5195)"/>
</clipPath>
</defs>
</svg>
