<svg width="114" height="114" viewBox="0 0 114 114" fill="none" xmlns="http://www.w3.org/2000/svg">
<g filter="url(#filter0_d_6461_91749)">
<rect x="7.90625" y="12.5195" width="85" height="85" rx="42.5" fill="url(#paint0_linear_6461_91749)"/>
</g>
<path d="M59.5166 51.1544V48.1931L56.78 47.4833C56.5065 47.4124 56.2889 47.2052 56.2052 46.9365C56.0295 46.3675 55.8026 45.8194 55.5315 45.3087C55.3989 45.0585 55.4059 44.7583 55.549 44.5151L56.9813 42.0728L54.8881 39.9784L52.4457 41.4143C52.2014 41.5573 51.9001 41.5644 51.6498 41.4306C51.1437 41.1606 50.598 40.9349 50.0266 40.758C49.7578 40.6742 49.5507 40.4578 49.4798 40.1844L48.7677 37.4466H45.8088L45.0967 40.1844C45.0257 40.4578 44.8186 40.6742 44.5499 40.758C43.982 40.9337 43.4341 41.1606 42.9221 41.4317C42.6719 41.5644 42.3718 41.5573 42.1274 41.4143L39.6898 39.9784L37.5955 42.0728L39.0313 44.514C39.1756 44.7583 39.1814 45.0608 39.0476 45.311C38.7765 45.8172 38.5485 46.3641 38.3716 46.9365C38.2877 47.2052 38.0714 47.4124 37.7979 47.4833L35.06 48.1931V51.1544L37.7979 51.8665C38.0714 51.9375 38.2877 52.1446 38.3716 52.4133C38.5473 52.9811 38.7742 53.5291 39.0453 54.0412C39.1779 54.2913 39.1709 54.5915 39.0278 54.8347L37.5955 57.2735L39.6898 59.3679L42.1309 57.932C42.3753 57.7888 42.6766 57.7819 42.9268 57.9157C43.4469 58.1926 43.9914 58.4184 44.5465 58.5871C44.8176 58.6697 45.0259 58.8873 45.0968 59.1619L45.8089 61.9032H48.7678L49.4799 59.1619C49.551 58.8873 49.7603 58.6697 50.0315 58.5871C50.5831 58.4196 51.1299 58.1927 51.6558 57.9146C51.9048 57.7819 52.2062 57.789 52.4494 57.932L54.8893 59.369C54.4112 59.6983 53.9608 60.066 53.5408 60.4663C51.4534 62.4594 50.1502 65.2694 50.1502 68.3772C50.1502 68.7368 50.1677 69.0928 50.2025 69.4442C49.2845 69.8864 48.3071 70.304 47.2867 70.6904C39.1499 67.6128 34.3364 62.8446 32.1617 55.7109V37.364L47.2867 31.5741L62.4163 37.364V55.7109C62.2371 56.2997 62.0335 56.8861 61.8089 57.4609C61.5716 57.4458 61.3319 57.4377 61.0898 57.4377C60.3998 57.4377 59.7237 57.5017 59.0699 57.625C58.5103 57.7297 57.9656 57.8775 57.4397 58.0649L55.5455 54.8314C55.4011 54.5859 55.3965 54.2834 55.5315 54.0332C55.8003 53.5317 56.0284 52.9872 56.2052 52.4135C56.289 52.1447 56.5054 51.9376 56.7789 51.8667L59.5166 51.1544ZM54.2655 49.6732C54.2655 53.521 51.1355 56.6522 47.2865 56.6522C43.4398 56.6522 40.3109 53.5211 40.3109 49.6732C40.3109 45.8265 43.4398 42.6976 47.2865 42.6976C51.1355 42.6977 54.2655 45.8265 54.2655 49.6732ZM52.6365 49.6732C52.6365 46.7248 50.2372 44.3266 47.2865 44.3266C44.3392 44.3266 41.9399 46.7247 41.9399 49.6732C41.9399 52.6228 44.3392 55.0232 47.2865 55.0232C50.2373 55.0232 52.6365 52.6228 52.6365 49.6732ZM73.2338 81.3416L69.6674 75.162C69.3137 75.6088 68.9251 76.0266 68.5073 76.4116C67.4858 77.3564 66.2837 78.1092 64.9597 78.6107C64.4419 78.8085 63.9055 78.9668 63.3528 79.0831L66.7993 85.0556C66.9459 85.3093 67.2169 85.4629 67.5043 85.4629C67.5404 85.4629 67.5754 85.4605 67.6114 85.4559C67.9383 85.4128 68.2071 85.1766 68.2921 84.859L69.1426 81.6848L72.3167 82.5354C72.6355 82.6203 72.9741 82.5062 73.1743 82.2445C73.3757 81.9839 73.3989 81.6266 73.2338 81.3416ZM50.4956 71.1081C49.5683 71.5398 48.5885 71.9471 47.5705 72.3241C47.4786 72.3578 47.3831 72.3753 47.2866 72.3753C47.1912 72.3753 47.0957 72.3578 47.0038 72.3241C42.7825 70.7626 39.4372 68.7857 36.7751 66.2794C33.8255 63.5008 31.7951 60.1603 30.5664 56.0646C30.5432 55.9889 30.5315 55.9099 30.5315 55.8308V36.8032C30.5315 36.4657 30.7398 36.1632 31.0551 36.0421L46.9958 29.9405C47.1831 29.8683 47.3902 29.8683 47.5787 29.9405L63.5217 36.0421C63.8371 36.1631 64.0453 36.4657 64.0453 36.8032V55.8308C64.0453 55.9099 64.0336 55.989 64.0115 56.0646C63.8475 56.6126 63.6636 57.1583 63.4623 57.6971C64.1431 57.8472 64.8004 58.0624 65.4264 58.3347C65.6743 57.6668 65.9 56.978 66.1001 56.2787V34.7751L47.2865 27.5762L28.4766 34.7751V56.2787C31.0026 65.1287 37.1579 71.1443 47.2866 74.6605C48.6829 74.1742 50 73.6447 51.2147 73.0816C50.9144 72.4544 50.6724 71.7946 50.4956 71.1081ZM53.6721 76.4116C53.2545 76.0264 52.8658 75.6077 52.5133 75.1608L48.9458 81.3416C48.7818 81.6266 48.805 81.9839 49.0052 82.2445C49.2065 82.5062 49.5439 82.6203 49.8627 82.5354L53.0368 81.6848L53.8851 84.8579C53.9701 85.1766 54.2388 85.4128 54.5646 85.4559C54.6006 85.4605 54.6367 85.4629 54.6716 85.4629C54.9601 85.4629 55.2301 85.3093 55.3767 85.0556L58.8254 79.082C58.2727 78.9656 57.7352 78.8074 57.2174 78.6096C55.8945 78.1081 54.6937 77.3552 53.6721 76.4116ZM61.0897 77.6881C55.9561 77.6881 51.779 73.5121 51.779 68.3774C51.779 63.2438 55.9561 59.0667 61.0897 59.0667C66.2245 59.0667 70.4016 63.2438 70.4016 68.3774C70.4016 73.5121 66.2245 77.6881 61.0897 77.6881ZM68.8017 68.3772C68.8017 64.1257 65.3425 60.6664 61.0897 60.6664C56.838 60.6664 53.3788 64.1257 53.3788 68.3772C53.3788 72.6301 56.8381 76.0893 61.0897 76.0893C65.3425 76.0893 68.8017 72.6301 68.8017 68.3772ZM65.7497 66.3469L62.9129 66.1666L61.8634 63.5218C61.74 63.2112 61.4398 63.0075 61.1059 63.0075C60.773 63.0075 60.4729 63.2111 60.3496 63.5218L59.3001 66.1666L56.4599 66.3469C56.1272 66.369 55.8409 66.5913 55.7374 66.9089C55.6338 67.2265 55.735 67.5744 55.9921 67.7874L58.1807 69.6025L57.4768 72.3578C57.3942 72.6813 57.5176 73.0222 57.7874 73.2189C58.0574 73.4155 58.4204 73.4272 58.7019 73.248L61.1059 71.7261L63.5063 73.248C63.6401 73.333 63.7913 73.3748 63.9427 73.3748C64.1113 73.3748 64.2789 73.3224 64.4221 73.2189C64.692 73.0234 64.8154 72.6814 64.7327 72.3578L64.0288 69.6025L66.2173 67.7874C66.4745 67.5745 66.5758 67.2265 66.4721 66.9089C66.3688 66.5913 66.0825 66.369 65.7497 66.3469ZM47.2865 46.599C45.9495 46.599 44.8628 47.687 44.8628 49.0239C44.8628 50.0758 45.5342 50.9741 46.472 51.3092C46.472 51.3092 46.4721 51.3092 46.4721 51.3093V52.4339C46.4721 52.8839 46.8368 53.2486 47.2867 53.2486C47.7366 53.2486 48.1013 52.8839 48.1013 52.4339V51.3102C49.0412 50.975 49.7146 50.0768 49.7146 49.024C49.7149 47.687 48.6258 46.599 47.2865 46.599Z" fill="white"/>
<defs>
<filter id="filter0_d_6461_91749" x="-0.000726581" y="0.000151873" width="113.992" height="113.992" filterUnits="userSpaceOnUse" color-interpolation-filters="sRGB">
<feFlood flood-opacity="0" result="BackgroundImageFix"/>
<feColorMatrix in="SourceAlpha" type="matrix" values="0 0 0 0 0 0 0 0 0 0 0 0 0 0 0 0 0 0 127 0" result="hardAlpha"/>
<feMorphology radius="1.31783" operator="dilate" in="SourceAlpha" result="effect1_dropShadow_6461_91749"/>
<feOffset dx="6.58915" dy="1.97674"/>
<feGaussianBlur stdDeviation="6.58915"/>
<feComposite in2="hardAlpha" operator="out"/>
<feColorMatrix type="matrix" values="0 0 0 0 0.568627 0 0 0 0 0.666667 0 0 0 0 0.980392 0 0 0 0.2 0"/>
<feBlend mode="normal" in2="BackgroundImageFix" result="effect1_dropShadow_6461_91749"/>
<feBlend mode="normal" in="SourceGraphic" in2="effect1_dropShadow_6461_91749" result="shape"/>
</filter>
<linearGradient id="paint0_linear_6461_91749" x1="23.4351" y1="12.1109" x2="67.1611" y2="102.015" gradientUnits="userSpaceOnUse">
<stop stop-color="#528DCD"/>
<stop offset="1" stop-color="#9AC1EC"/>
</linearGradient>
</defs>
</svg>
