<svg width="114" height="114" viewBox="0 0 114 114" fill="none" xmlns="http://www.w3.org/2000/svg">
<g filter="url(#filter0_d_6461_91688)">
<rect x="7.90625" y="12.5195" width="85" height="85" rx="42.5" fill="url(#paint0_linear_6461_91688)"/>
</g>
<path d="M74.6589 74.8527H71.4089V71.186C71.4089 70.686 71.0755 70.3527 70.5755 70.3527H70.2422V56.936H70.5755C71.0755 56.936 71.4089 56.5194 71.4089 56.1027V52.1027C74.1589 51.7694 76.2422 49.436 76.2422 46.6027C76.2422 45.186 75.6589 43.7694 74.6589 42.7694C73.9089 42.0194 72.9922 41.5194 71.9922 41.2694C72.5755 37.6027 70.4089 34.0194 66.8255 32.8527C65.1589 32.3527 63.4089 32.3527 61.8255 32.936C60.2422 30.186 57.1589 28.436 53.9089 28.436C51.2422 28.436 48.6589 29.6027 46.9089 31.686C44.5755 29.6027 41.4922 28.6027 38.3255 29.0194C32.8255 29.7694 28.7422 34.436 28.8255 39.936C25.9922 40.936 24.2422 43.686 24.6589 46.686C24.9922 49.2694 26.9089 51.436 29.4089 52.0194V56.0194C29.4089 56.436 29.7422 56.8527 30.2422 56.8527H30.5755V70.3527H30.2422C29.7422 70.3527 29.4089 70.686 29.4089 71.186V74.8527H26.1589C24.8255 74.8527 23.7422 75.936 23.7422 77.2694V79.1027C23.7422 80.436 24.8255 81.5194 26.1589 81.5194H74.6589C75.9922 81.5194 77.0755 80.436 77.0755 79.1027V77.2694C77.0755 76.0194 75.9922 74.8527 74.6589 74.8527ZM38.1589 74.8527H31.0755V72.0194H38.1589V74.8527ZM38.1589 55.2694H31.0755V52.3527H38.1589V55.2694ZM40.9089 39.186C46.1589 33.936 54.6589 33.936 59.9089 39.186C60.2422 39.5194 60.2422 40.0194 59.9089 40.3527C59.7422 40.5194 59.4922 40.6027 59.3255 40.6027C59.1589 40.6027 58.9089 40.5194 58.7422 40.3527C54.1589 35.7694 46.7422 35.7694 42.1589 40.3527C41.8255 40.686 41.3255 40.686 40.9922 40.3527C40.5755 40.0194 40.5755 39.5194 40.9089 39.186ZM52.2422 48.0194C52.0755 48.186 51.8255 48.2694 51.6589 48.2694C51.4089 48.2694 51.2422 48.186 51.0755 48.0194C50.7422 47.686 50.1589 47.686 49.8255 48.0194C49.4922 48.3527 48.9922 48.3527 48.6589 48.0194C48.3255 47.686 48.3255 47.186 48.6589 46.8527C49.6589 45.8527 51.2422 45.8527 52.2422 46.8527C52.5755 47.186 52.5755 47.686 52.2422 48.0194ZM53.6589 45.436C53.3255 45.1027 52.9089 44.8527 52.4922 44.6027C52.4089 44.5194 52.3255 44.5194 52.2422 44.5194C52.1589 44.5194 52.1589 44.5194 52.0755 44.436C51.9922 44.436 51.9089 44.3527 51.8255 44.3527C51.7422 44.3527 51.6589 44.2694 51.5755 44.2694C51.4922 44.2694 51.4089 44.186 51.2422 44.186C49.8255 43.936 48.3255 44.3527 47.2422 45.436C46.9089 45.7694 46.4089 45.7694 46.0755 45.436C45.7422 45.1027 45.7422 44.6027 46.0755 44.2694C48.4922 41.8527 52.4089 41.8527 54.8255 44.2694C55.1589 44.6027 55.1589 45.1027 54.8255 45.436C54.6589 45.6027 54.4922 45.686 54.2422 45.686C54.0755 45.686 53.8255 45.6027 53.6589 45.436ZM44.6589 42.936C44.3255 43.2694 43.8255 43.2694 43.4922 42.936C43.1589 42.6027 43.1589 42.1027 43.4922 41.7694C47.3255 37.936 53.4922 37.936 57.3255 41.7694C57.4922 41.936 57.4922 42.0194 57.5755 42.186V42.5194C57.5755 42.6027 57.4922 42.7694 57.4089 42.8527C57.4089 42.936 57.3255 42.936 57.3255 43.0194C57.1589 43.186 56.9089 43.2694 56.7422 43.2694C56.4922 43.2694 56.3255 43.186 56.1589 43.0194C52.9922 39.7694 47.8255 39.7694 44.6589 42.936ZM62.1589 70.436H61.8255C61.4089 70.436 60.9922 70.7694 60.9922 71.2694V74.936H39.8255V71.2694C39.8255 70.7694 39.4922 70.436 38.9922 70.436H38.6589V56.936H38.9922C39.4922 56.936 39.8255 56.5194 39.8255 56.1027V52.2694L60.9922 52.186V56.1027C60.9922 56.5194 61.4089 56.936 61.8255 56.936H62.1589V70.436ZM69.7422 74.8527H62.6589V72.0194H69.7422V74.8527ZM69.7422 55.2694H62.6589V52.186H69.7422V55.2694Z" fill="white"/>
<path d="M50.4036 54.2695C45.237 54.2695 41.0703 58.4362 41.0703 63.6029C41.0703 68.7695 45.237 72.9362 50.4036 72.9362C55.5703 72.9362 59.737 68.7695 59.737 63.6029C59.737 58.4362 55.5703 54.2695 50.4036 54.2695ZM50.4036 71.2695C46.1536 71.2695 42.737 67.8529 42.737 63.6029C42.737 59.3529 46.1536 55.9362 50.4036 55.9362C54.6536 55.9362 58.0703 59.3529 58.0703 63.6029C58.0703 67.8529 54.6536 71.2695 50.4036 71.2695Z" fill="white"/>
<path d="M50.4036 60.353C51.0703 60.353 51.5703 60.853 51.5703 61.5197C51.5703 62.0197 51.9036 62.353 52.4036 62.353C52.9036 62.353 53.237 62.0197 53.237 61.5197C53.237 60.2697 52.4036 59.1864 51.237 58.7697V58.4364C51.237 57.9364 50.9036 57.603 50.4036 57.603C49.9036 57.603 49.5703 57.9364 49.5703 58.4364V58.7697C48.4036 59.103 47.5703 60.1864 47.5703 61.5197C47.5703 63.103 48.8203 64.353 50.4036 64.353C51.0703 64.353 51.5703 64.853 51.5703 65.5197C51.5703 66.1864 51.0703 66.6864 50.4036 66.6864C49.737 66.6864 49.237 66.1864 49.237 65.5197C49.237 65.0197 48.9036 64.6864 48.4036 64.6864C47.9036 64.6864 47.5703 65.0197 47.5703 65.5197C47.5703 66.7697 48.4036 67.853 49.5703 68.2697V68.603C49.5703 69.103 49.9036 69.4364 50.4036 69.4364C50.9036 69.4364 51.237 69.103 51.237 68.603V68.353C52.4036 68.0197 53.237 66.9364 53.237 65.603C53.237 64.0197 51.987 62.7697 50.4036 62.7697C49.737 62.7697 49.237 62.2697 49.237 61.603C49.237 60.9364 49.737 60.353 50.4036 60.353Z" fill="white"/>
<path d="M54.2422 45.686C54.1589 45.686 54.1589 45.686 54.2422 45.686C53.9922 45.686 53.7422 45.6027 53.5755 45.436C52.9089 44.7694 52.1589 44.3527 51.2422 44.186C52.0755 44.3527 52.9089 44.7694 53.6589 45.436C53.8255 45.6027 54.0755 45.686 54.2422 45.686Z" fill="white"/>
<defs>
<filter id="filter0_d_6461_91688" x="-0.000726581" y="0.000151873" width="113.992" height="113.992" filterUnits="userSpaceOnUse" color-interpolation-filters="sRGB">
<feFlood flood-opacity="0" result="BackgroundImageFix"/>
<feColorMatrix in="SourceAlpha" type="matrix" values="0 0 0 0 0 0 0 0 0 0 0 0 0 0 0 0 0 0 127 0" result="hardAlpha"/>
<feMorphology radius="1.31783" operator="dilate" in="SourceAlpha" result="effect1_dropShadow_6461_91688"/>
<feOffset dx="6.58915" dy="1.97674"/>
<feGaussianBlur stdDeviation="6.58915"/>
<feComposite in2="hardAlpha" operator="out"/>
<feColorMatrix type="matrix" values="0 0 0 0 0.568627 0 0 0 0 0.666667 0 0 0 0 0.980392 0 0 0 0.2 0"/>
<feBlend mode="normal" in2="BackgroundImageFix" result="effect1_dropShadow_6461_91688"/>
<feBlend mode="normal" in="SourceGraphic" in2="effect1_dropShadow_6461_91688" result="shape"/>
</filter>
<linearGradient id="paint0_linear_6461_91688" x1="23.4351" y1="12.1109" x2="67.1611" y2="102.015" gradientUnits="userSpaceOnUse">
<stop stop-color="#FF8A46"/>
<stop offset="1" stop-color="#FCB389"/>
</linearGradient>
</defs>
</svg>
