<svg width="114" height="114" viewBox="0 0 114 114" fill="none" xmlns="http://www.w3.org/2000/svg">
<g filter="url(#filter0_d_6461_91726)">
<rect x="7.90625" y="12.5195" width="85" height="85" rx="42.5" fill="url(#paint0_linear_6461_91726)"/>
</g>
<path fill-rule="evenodd" clip-rule="evenodd" d="M37.0518 32.6579C40.6313 30.7434 44.6874 29.6035 48.9962 29.4624V39.646C46.5394 39.7747 44.2199 40.4213 42.1445 41.4788L37.0518 32.6579ZM64.3353 33.5691C67.874 35.7774 70.8703 38.7737 73.0785 42.3125L64.2576 47.4052C62.9537 45.4049 61.2428 43.694 59.2425 42.39L64.3353 33.5691ZM34.6432 48.9802C33.5348 51.1554 32.8778 53.5992 32.7955 56.1878C32.7875 56.4954 32.5358 56.7406 32.2281 56.7406C30.4569 56.7417 24.9781 56.7417 23.1858 56.7417C23.0334 56.7417 22.8873 56.6804 22.7804 56.5717C22.6735 56.4631 22.6147 56.3159 22.6173 56.1636C22.7101 51.7312 23.8587 47.5586 25.8223 43.8873L34.6432 48.9802ZM54.923 51.7396L58.584 48.0787C59.0484 47.6142 59.6782 47.3534 60.335 47.3534C60.9918 47.3534 61.6216 47.6142 62.0859 48.0787L62.0863 48.0789C62.5506 48.5434 62.8115 49.1732 62.8115 49.83C62.8115 50.4867 62.5506 51.1165 62.0863 51.5809L57.5838 56.0835L55.7076 52.8347L55.7073 52.834C55.479 52.4386 55.216 52.0728 54.923 51.7396ZM26.7336 42.3124C28.9418 38.7737 31.9381 35.7774 35.4768 33.5691L40.5696 42.39C38.5693 43.694 36.8584 45.4049 35.5545 47.4052L26.7336 42.3124ZM50.8158 29.4624C55.1246 29.6035 59.1808 30.7434 62.7603 32.6579L57.6675 41.4788C55.5922 40.4213 53.2725 39.7747 50.8158 39.646V29.4624ZM73.9898 43.8875C75.9534 47.5586 77.102 51.7312 77.1941 56.1636C77.1968 56.3158 77.138 56.4628 77.0312 56.5713C76.9245 56.6799 76.7786 56.7411 76.6263 56.7411C74.834 56.7417 69.3551 56.7417 67.584 56.7417C67.2757 56.7417 67.0236 56.496 67.0155 56.1879C66.9343 53.5992 66.2773 51.1554 65.1689 48.9802L73.9898 43.8875ZM54.1315 53.7439L64.8218 72.2563C65.7006 73.7774 65.7006 75.6153 64.8218 77.1364C63.9431 78.6597 62.3506 79.5765 60.5929 79.5765H39.2169C37.4594 79.5765 35.869 78.6597 34.9903 77.1364C34.1115 75.6153 34.1115 73.7774 34.9903 72.2563L45.6783 53.7439C46.5571 52.2206 48.1474 51.3017 49.9049 51.3017C51.6625 51.3017 53.2528 52.2206 54.1315 53.7439ZM52.5997 55.1587C52.035 54.1786 51.0368 53.6022 49.905 53.6022C48.7757 53.6022 47.7744 54.1789 47.2097 55.1597L37.1354 72.6089C36.571 73.5891 36.571 74.741 37.1351 75.7206L37.1354 75.7212C37.7001 76.6991 38.7015 77.2782 39.8304 77.2782H59.9796C61.1105 77.2782 62.1084 76.7001 62.6754 75.7234L62.6762 75.7221C63.241 74.741 63.241 73.5891 62.677 72.6094L62.6767 72.6089L52.6003 55.1597L52.5997 55.1587ZM51.0234 56.0676L51.0237 56.0681L61.1002 73.5175C61.3344 73.9245 61.3349 74.4029 61.1015 74.8101C60.8646 75.2172 60.4501 75.4586 59.9796 75.4586H39.8304C39.3618 75.4586 38.9462 75.2178 38.7117 74.8121C38.4772 74.4044 38.4772 73.9252 38.7119 73.5175L48.7863 56.068C49.0208 55.6608 49.4365 55.4218 49.905 55.4218C50.3747 55.4218 50.7891 55.6608 51.0234 56.0676ZM49.9049 69.0757C50.4669 69.0757 50.9287 68.6319 50.9488 68.0698L51.212 60.7675C51.2231 60.4731 51.125 60.2166 50.9198 60.0046C50.7168 59.7928 50.4625 59.6857 50.1681 59.6857H49.6417C49.3473 59.6857 49.0953 59.7928 48.8901 60.0046C48.6871 60.2166 48.589 60.4731 48.5979 60.7675L48.8633 68.0698C48.8834 68.6319 49.3429 69.0757 49.9049 69.0757ZM49.9049 73.1462C50.6409 73.1462 51.241 72.5462 51.241 71.8101C51.241 71.0741 50.6409 70.4742 49.9049 70.4742C49.1689 70.4742 48.569 71.0741 48.569 71.8101C48.569 72.5462 49.1689 73.1462 49.9049 73.1462Z" fill="white"/>
<defs>
<filter id="filter0_d_6461_91726" x="-0.000726581" y="0.000151873" width="113.992" height="113.992" filterUnits="userSpaceOnUse" color-interpolation-filters="sRGB">
<feFlood flood-opacity="0" result="BackgroundImageFix"/>
<feColorMatrix in="SourceAlpha" type="matrix" values="0 0 0 0 0 0 0 0 0 0 0 0 0 0 0 0 0 0 127 0" result="hardAlpha"/>
<feMorphology radius="1.31783" operator="dilate" in="SourceAlpha" result="effect1_dropShadow_6461_91726"/>
<feOffset dx="6.58915" dy="1.97674"/>
<feGaussianBlur stdDeviation="6.58915"/>
<feComposite in2="hardAlpha" operator="out"/>
<feColorMatrix type="matrix" values="0 0 0 0 0.568627 0 0 0 0 0.666667 0 0 0 0 0.980392 0 0 0 0.2 0"/>
<feBlend mode="normal" in2="BackgroundImageFix" result="effect1_dropShadow_6461_91726"/>
<feBlend mode="normal" in="SourceGraphic" in2="effect1_dropShadow_6461_91726" result="shape"/>
</filter>
<linearGradient id="paint0_linear_6461_91726" x1="23.4351" y1="12.1109" x2="67.1611" y2="102.015" gradientUnits="userSpaceOnUse">
<stop stop-color="#FEB701"/>
<stop offset="1" stop-color="#FFDD85"/>
</linearGradient>
</defs>
</svg>
