<svg width="114" height="114" viewBox="0 0 114 114" fill="none" xmlns="http://www.w3.org/2000/svg">
<g filter="url(#filter0_d_6461_91737)">
<rect x="7.90625" y="12.5195" width="85" height="85" rx="42.5" fill="url(#paint0_linear_6461_91737)"/>
</g>
<path d="M51.3985 66.237C51.3988 66.5325 51.3115 66.8215 51.1475 67.0673C50.9836 67.3132 50.7505 67.505 50.4775 67.6183C50.2046 67.7317 49.9042 67.7616 49.6144 67.7042C49.3245 67.6468 49.0581 67.5048 48.8489 67.296C48.6398 67.0873 48.4972 66.8212 48.4393 66.5314C48.3814 66.2416 48.4107 65.9412 48.5236 65.668C48.6364 65.3949 48.8277 65.1614 49.0733 64.997C49.3188 64.8326 49.6076 64.7448 49.9032 64.7445C50.2992 64.7445 50.6792 64.9017 50.9595 65.1815C51.2398 65.4613 51.3977 65.8409 51.3985 66.237ZM76.0231 74.5546C75.1251 76.1338 73.8226 77.4453 72.2494 78.354C70.6763 79.2626 68.8894 79.7356 67.0727 79.7244H32.733C30.9188 79.7239 29.1367 79.2461 27.5657 78.3388C25.9947 77.4315 24.6901 76.1268 23.7831 74.5556C22.876 72.9845 22.3984 71.2023 22.3983 69.3881C22.3981 67.5739 22.8754 65.7916 23.7822 64.2204L40.9521 34.482C41.8594 32.911 43.1641 31.6064 44.7353 30.6994C46.3065 29.7924 48.0887 29.3149 49.9028 29.3149C51.717 29.3149 53.4992 29.7924 55.0703 30.6994C56.6415 31.6064 57.9463 32.911 58.8535 34.482L76.0232 64.22C76.9416 65.7872 77.4257 67.5708 77.4256 69.3873C77.4256 71.2038 76.9415 72.9874 76.0231 74.5546ZM72.9758 65.9798L64.3926 51.1122L55.8061 36.2417C54.5552 34.0764 52.4035 32.8347 49.9029 32.8347C47.4045 32.8347 45.254 34.0764 44.0028 36.2419L35.4161 51.1125L26.8331 65.9796C25.5818 68.1451 25.5818 70.6291 26.8331 72.7947C28.0844 74.9603 30.2345 76.2017 32.733 76.2017H67.0727C69.5733 76.2017 71.7249 74.9599 72.9758 72.7946C74.2268 70.6294 74.2271 68.1451 72.9761 65.9798H72.9758ZM49.9028 46.9391C49.636 46.9401 49.372 46.995 49.1268 47.1002C48.8816 47.2055 48.6601 47.3591 48.4755 47.5518C48.3107 47.7187 48.1817 47.9175 48.0964 48.136C48.0112 48.3545 47.9714 48.5881 47.9796 48.8225L48.4132 58.7186C48.4509 59.5759 49.1053 60.2479 49.9033 60.2479C50.7099 60.2479 51.352 59.5877 51.397 58.7123L51.8275 48.8228C51.8362 48.589 51.7971 48.3558 51.7125 48.1376C51.6278 47.9194 51.4995 47.7208 51.3353 47.5541C51.1502 47.3604 50.9279 47.2062 50.6818 47.1005C50.4356 46.9948 50.1707 46.9399 49.9028 46.9391ZM71.4064 66.8862C71.8455 67.6467 72.0765 68.5095 72.0764 69.3876C72.0763 70.2658 71.845 71.1285 71.4058 71.8889C70.9666 72.6493 70.3349 73.2807 69.5743 73.7196C68.8137 74.1585 67.9509 74.3894 67.0727 74.3892H32.733C31.8551 74.3889 30.9927 74.1576 30.2325 73.7184C29.4723 73.2793 28.8411 72.6479 28.4022 71.8875C27.9634 71.1271 27.7324 70.2647 27.7325 69.3867C27.7325 68.5088 27.9636 67.6464 28.4026 66.8861L36.9858 52.0185L45.5725 37.1482C46.0116 36.3877 46.6431 35.7563 47.4036 35.3172C48.164 34.8782 49.0266 34.6471 49.9047 34.6471C50.7828 34.6471 51.6455 34.8782 52.4059 35.3172C53.1664 35.7563 53.7979 36.3877 54.237 37.1482L62.8237 52.0187L71.4064 66.8862ZM53.211 66.237C53.2113 65.583 53.0177 64.9436 52.6546 64.3997C52.2915 63.8557 51.7753 63.4317 51.1712 63.1811C50.5671 62.9306 49.9022 62.8648 49.2608 62.9921C48.6193 63.1194 48.03 63.4341 47.5673 63.8963C47.1047 64.3586 46.7895 64.9476 46.6616 65.589C46.5338 66.2303 46.599 66.8952 46.849 67.4995C47.0991 68.1039 47.5227 68.6204 48.0663 68.984C48.6099 69.3475 49.2492 69.5417 49.9032 69.542C50.7798 69.5413 51.6203 69.193 52.2404 68.5734C52.8605 67.9538 53.2096 67.1136 53.211 66.237ZM52.6446 46.3008C52.2912 45.93 51.8663 45.6347 51.3956 45.4329C50.9248 45.231 50.418 45.1268 49.9058 45.1266C49.3936 45.1263 48.8866 45.23 48.4157 45.4314C47.9447 45.6328 47.5195 45.9276 47.1658 46.2981C46.831 46.6412 46.5698 47.0491 46.3983 47.4968C46.2268 47.9445 46.1485 48.4225 46.1683 48.9014L46.6018 58.7981C46.6822 60.6273 48.1321 62.0606 49.9027 62.0606C51.6617 62.0606 53.1129 60.6307 53.2068 58.7981L53.6372 48.9033C53.658 48.4247 53.5807 47.947 53.41 47.4994C53.2393 47.0519 52.9787 46.644 52.6446 46.3008ZM23.9506 49.9106C24.0657 49.8798 24.1735 49.8266 24.2679 49.7542C24.3624 49.6817 24.4416 49.5914 24.5012 49.4883C24.5607 49.3852 24.5993 49.2714 24.6149 49.1534C24.6304 49.0353 24.6225 48.9154 24.5917 48.8004C23.7896 45.7918 24.2136 42.588 25.7705 39.8916C27.3275 37.1951 29.8903 35.2263 32.8969 34.417C33.0119 34.3862 33.1197 34.333 33.2141 34.2606C33.3085 34.1881 33.3877 34.0978 33.4473 33.9947C33.5068 33.8916 33.5454 33.7778 33.5609 33.6598C33.5765 33.5418 33.5686 33.4219 33.5378 33.307C33.507 33.192 33.4539 33.0842 33.3814 32.9898C33.309 32.8954 33.2186 32.8162 33.1156 32.7566C33.0125 32.6971 32.8987 32.6585 32.7807 32.643C32.6627 32.6274 32.5428 32.6353 32.4278 32.6661C28.9572 33.6004 25.9988 35.8732 24.2016 38.9858C22.4044 42.0984 21.9151 45.7967 22.8409 49.2696C22.8716 49.3847 22.9247 49.4926 22.9971 49.5871C23.0695 49.6816 23.1599 49.7609 23.263 49.8204C23.3662 49.88 23.48 49.9186 23.5981 49.934C23.7162 49.9495 23.8361 49.9415 23.9511 49.9106H23.9506ZM28.4592 48.703C28.5742 48.6721 28.6819 48.619 28.7763 48.5465C28.8707 48.474 28.9499 48.3836 29.0094 48.2806C29.0689 48.1775 29.1075 48.0637 29.123 47.9457C29.1385 47.8277 29.1306 47.7078 29.0997 47.5928C28.6161 45.7794 28.8713 43.8482 29.8095 42.2227C30.7477 40.5972 32.2923 39.4102 34.1045 38.9219C34.2194 38.8911 34.3272 38.8379 34.4216 38.7654C34.516 38.6929 34.5951 38.6025 34.6546 38.4994C34.7141 38.3963 34.7526 38.2826 34.7681 38.1646C34.7836 38.0466 34.7757 37.9267 34.7448 37.8117C34.714 37.6968 34.6608 37.589 34.5883 37.4947C34.5158 37.4003 34.4254 37.3211 34.3223 37.2616C34.2192 37.2022 34.1054 37.1636 33.9874 37.1481C33.8694 37.1326 33.7496 37.1405 33.6346 37.1714C31.3585 37.7848 29.4186 39.2759 28.2403 41.3176C27.0621 43.3593 26.7416 45.785 27.3493 48.0626C27.3801 48.1776 27.4332 48.2854 27.5057 48.3798C27.5781 48.4743 27.6685 48.5535 27.7716 48.613C27.8747 48.6725 27.9885 48.711 28.1066 48.7265C28.2246 48.7419 28.3445 48.7339 28.4595 48.703H28.4592ZM76.9645 49.2701C77.4257 47.5506 77.5437 45.757 77.3116 43.9919C77.0796 42.2268 76.5021 40.5247 75.6121 38.9829C74.7222 37.441 73.5372 36.0895 72.1249 35.0057C70.7125 33.9218 69.1005 33.1268 67.3809 32.6661C67.2659 32.6353 67.146 32.6274 67.028 32.643C66.91 32.6585 66.7962 32.6972 66.6932 32.7567C66.5901 32.8162 66.4998 32.8954 66.4273 32.9899C66.3549 33.0843 66.3017 33.1921 66.2709 33.307C66.2401 33.422 66.2323 33.5419 66.2478 33.6599C66.2634 33.7779 66.302 33.8917 66.3615 33.9947C66.4211 34.0978 66.5003 34.1881 66.5947 34.2606C66.6891 34.333 66.7969 34.3862 66.9119 34.417C68.4016 34.816 69.798 35.5047 71.0215 36.4436C72.245 37.3824 73.2715 38.5531 74.0425 39.8888C74.8135 41.2245 75.3137 42.699 75.5148 44.228C75.7158 45.7571 75.6136 47.3107 75.214 48.8003C75.1825 48.9155 75.174 49.0357 75.1891 49.1542C75.2041 49.2726 75.2425 49.387 75.3019 49.4906C75.3613 49.5941 75.4405 49.685 75.5351 49.7578C75.6298 49.8307 75.7378 49.8841 75.8532 49.9151C75.9685 49.946 76.0888 49.9539 76.2072 49.9382C76.3256 49.9225 76.4397 49.8836 76.543 49.8236C76.6462 49.7637 76.7367 49.6839 76.809 49.5889C76.8814 49.4939 76.9341 49.3856 76.9645 49.2701ZM72.4599 48.0626C73.0676 45.7849 72.7472 43.3593 71.5689 41.3176C70.3906 39.2758 68.4506 37.7848 66.1745 37.1714C65.9424 37.1091 65.695 37.1415 65.4868 37.2616C65.2786 37.3817 65.1266 37.5795 65.0643 37.8117C65.0019 38.0438 65.0344 38.2912 65.1545 38.4994C65.2745 38.7076 65.4724 38.8596 65.7045 38.9219C67.5167 39.4102 69.0613 40.5972 69.9996 42.2227C70.9378 43.8482 71.1931 45.7794 70.7094 47.5928C70.6778 47.708 70.6694 47.8283 70.6844 47.9467C70.6995 48.0652 70.7378 48.1795 70.7972 48.2831C70.8566 48.3867 70.9359 48.4775 71.0305 48.5504C71.1251 48.6232 71.2332 48.6767 71.3485 48.7076C71.4639 48.7386 71.5842 48.7464 71.7026 48.7307C71.8209 48.715 71.9351 48.6761 72.0383 48.6162C72.1416 48.5562 72.232 48.4764 72.3044 48.3815C72.3767 48.2865 72.4296 48.1781 72.4599 48.0626Z" fill="white"/>
<defs>
<filter id="filter0_d_6461_91737" x="-0.000726581" y="0.000151873" width="113.992" height="113.992" filterUnits="userSpaceOnUse" color-interpolation-filters="sRGB">
<feFlood flood-opacity="0" result="BackgroundImageFix"/>
<feColorMatrix in="SourceAlpha" type="matrix" values="0 0 0 0 0 0 0 0 0 0 0 0 0 0 0 0 0 0 127 0" result="hardAlpha"/>
<feMorphology radius="1.31783" operator="dilate" in="SourceAlpha" result="effect1_dropShadow_6461_91737"/>
<feOffset dx="6.58915" dy="1.97674"/>
<feGaussianBlur stdDeviation="6.58915"/>
<feComposite in2="hardAlpha" operator="out"/>
<feColorMatrix type="matrix" values="0 0 0 0 0.568627 0 0 0 0 0.666667 0 0 0 0 0.980392 0 0 0 0.2 0"/>
<feBlend mode="normal" in2="BackgroundImageFix" result="effect1_dropShadow_6461_91737"/>
<feBlend mode="normal" in="SourceGraphic" in2="effect1_dropShadow_6461_91737" result="shape"/>
</filter>
<linearGradient id="paint0_linear_6461_91737" x1="23.4351" y1="12.1109" x2="67.1611" y2="102.015" gradientUnits="userSpaceOnUse">
<stop stop-color="#64BD7D"/>
<stop offset="1" stop-color="#8FF1AA"/>
</linearGradient>
</defs>
</svg>
