<svg width="59" height="95" viewBox="0 0 59 95" fill="none" xmlns="http://www.w3.org/2000/svg">
<path d="M28.864 4.74586L29.2267 2.39477C29.3284 1.72676 29.652 1.11886 30.1394 0.680028C30.6268 0.241194 31.2463 0.000115362 31.8867 0C32.5566 0.00984652 33.2016 0.26983 33.7075 0.733915C34.2133 1.198 34.5475 1.83625 34.6507 2.53563C35.4187 7.46604 37.644 18.4763 42.9267 25.2887C46.1327 29.4482 50.1172 32.8633 54.6307 35.32C55.6092 35.8096 56.4422 36.573 57.0392 37.5274C57.6362 38.4817 57.9745 39.5905 58.0173 40.7336C57.9939 41.7261 57.7337 42.6963 57.2608 43.5543C56.7879 44.4122 56.1175 45.1301 55.312 45.6414C50.744 48.6645 41.7587 55.9037 39.304 67.3225C37.6424 75.0084 36.5212 82.8136 35.9493 90.6743C35.9 91.6615 35.4981 92.5922 34.8246 93.2784C34.151 93.9646 33.2562 94.3553 32.3206 94.3716C31.3851 94.3879 30.4785 94.0285 29.784 93.3661C29.0894 92.7036 28.6587 91.7874 28.5787 90.8025C27.8347 83.2731 25.3347 65.8335 17.752 58.1928C13.4766 53.6456 8.31527 50.1365 2.62667 47.9094C1.89227 47.6684 1.24605 47.1941 0.776025 46.551C0.305999 45.908 0.035021 45.1275 0 44.3159C0.0160995 43.4774 0.31488 42.6725 0.842586 42.046C1.37029 41.4196 2.09228 41.0126 2.87867 40.8984C5.97778 40.4721 9.00396 39.5833 11.8667 38.2585C16.716 35.7806 26.9333 25.2859 28.864 4.74586Z" fill="#E9B9FF"/>
</svg>
